<svg xmlns="http://www.w3.org/2000/svg"  viewBox="0 0 100 100" width="32px" height="32px"><path fill="#c7ede6" d="M87.215,56.71C88.35,54.555,89,52.105,89,49.5c0-6.621-4.159-12.257-10.001-14.478	C78.999,35.015,79,35.008,79,35c0-11.598-9.402-21-21-21c-9.784,0-17.981,6.701-20.313,15.757C36.211,29.272,34.638,29,33,29	c-7.692,0-14.023,5.793-14.89,13.252C12.906,43.353,9,47.969,9,53.5C9,59.851,14.149,65,20.5,65c0.177,0,0.352-0.012,0.526-0.022	C21.022,65.153,21,65.324,21,65.5C21,76.822,30.178,86,41.5,86c6.437,0,12.175-2.972,15.934-7.614C59.612,80.611,62.64,82,66,82	c4.65,0,8.674-2.65,10.666-6.518C77.718,75.817,78.837,76,80,76c6.075,0,11-4.925,11-11C91,61.689,89.53,58.727,87.215,56.71z"/><path fill="#fdfcef" d="M77.5,60.5V61h3v-0.5c0,0,4.242,0,5.5,0c2.485,0,4.5-2.015,4.5-4.5c0-2.333-1.782-4.229-4.055-4.455 C86.467,51.364,86.5,51.187,86.5,51c0-2.485-2.015-4.5-4.5-4.5c-1.438,0-2.703,0.686-3.527,1.736 C78.333,45.6,76.171,43.5,73.5,43.5c-2.761,0-5,2.239-5,5c0,0.446,0.077,0.87,0.187,1.282C68.045,49.005,67.086,48.5,66,48.5 c-1.781,0-3.234,1.335-3.455,3.055C62.364,51.533,62.187,51.5,62,51.5c-2.485,0-4.5,2.015-4.5,4.5s2.015,4.5,4.5,4.5s9.5,0,9.5,0 H77.5z"/><path fill="#472b29" d="M73.5,43c-3.033,0-5.5,2.467-5.5,5.5c0,0.016,0,0.031,0,0.047C67.398,48.192,66.71,48,66,48 c-1.831,0-3.411,1.261-3.858,3.005C62.095,51.002,62.048,51,62,51c-2.757,0-5,2.243-5,5s2.243,5,5,5h15.5 c0.276,0,0.5-0.224,0.5-0.5S77.776,60,77.5,60H62c-2.206,0-4-1.794-4-4s1.794-4,4-4c0.117,0,0.23,0.017,0.343,0.032l0.141,0.019 c0.021,0.003,0.041,0.004,0.062,0.004c0.246,0,0.462-0.185,0.495-0.437C63.232,50.125,64.504,49,66,49 c0.885,0,1.723,0.401,2.301,1.1c0.098,0.118,0.241,0.182,0.386,0.182c0.078,0,0.156-0.018,0.228-0.056 c0.209-0.107,0.314-0.346,0.254-0.573C69.054,49.218,69,48.852,69,48.5c0-2.481,2.019-4.5,4.5-4.5c2.381,0,4.347,1.872,4.474,4.263 c0.011,0.208,0.15,0.387,0.349,0.45c0.05,0.016,0.101,0.024,0.152,0.024c0.15,0,0.296-0.069,0.392-0.192 C79.638,47.563,80.779,47,82,47c2.206,0,4,1.794,4,4c0,0.117-0.017,0.23-0.032,0.343l-0.019,0.141 c-0.016,0.134,0.022,0.268,0.106,0.373s0.207,0.172,0.34,0.185C88.451,52.247,90,53.949,90,56c0,2.206-1.794,4-4,4h-5.5 c-0.276,0-0.5,0.224-0.5,0.5s0.224,0.5,0.5,0.5H86c2.757,0,5-2.243,5-5c0-2.397-1.689-4.413-4.003-4.877 C86.999,51.082,87,51.041,87,51c0-2.757-2.243-5-5-5c-1.176,0-2.293,0.416-3.183,1.164C78.219,44.76,76.055,43,73.5,43L73.5,43z"/><path fill="#472b29" d="M72,50c-1.403,0-2.609,0.999-2.913,2.341C68.72,52.119,68.301,52,67.875,52 c-1.202,0-2.198,0.897-2.353,2.068C65.319,54.022,65.126,54,64.938,54c-1.529,0-2.811,1.2-2.918,2.732 C62.01,56.87,62.114,56.99,62.251,57c0.006,0,0.012,0,0.018,0c0.13,0,0.24-0.101,0.249-0.232c0.089-1.271,1.151-2.268,2.419-2.268 c0.229,0,0.47,0.042,0.738,0.127c0.022,0.007,0.045,0.01,0.067,0.01c0.055,0,0.11-0.02,0.156-0.054 C65.962,54.537,66,54.455,66,54.375c0-1.034,0.841-1.875,1.875-1.875c0.447,0,0.885,0.168,1.231,0.473 c0.047,0.041,0.106,0.063,0.165,0.063c0.032,0,0.063-0.006,0.093-0.019c0.088-0.035,0.148-0.117,0.155-0.212 C69.623,51.512,70.712,50.5,72,50.5c0.208,0,0.425,0.034,0.682,0.107c0.023,0.007,0.047,0.01,0.07,0.01 c0.109,0,0.207-0.073,0.239-0.182c0.038-0.133-0.039-0.271-0.172-0.309C72.517,50.04,72.256,50,72,50L72,50z"/><path fill="#472b29" d="M85.883,51.5c-1.326,0-2.508,0.897-2.874,2.182c-0.038,0.133,0.039,0.271,0.172,0.309 C83.205,53.997,83.228,54,83.25,54c0.109,0,0.209-0.072,0.24-0.182C83.795,52.748,84.779,52,85.883,52 c0.117,0,0.23,0.014,0.342,0.029c0.012,0.002,0.023,0.003,0.035,0.003c0.121,0,0.229-0.092,0.246-0.217 c0.019-0.137-0.077-0.263-0.214-0.281C86.158,51.516,86.022,51.5,85.883,51.5L85.883,51.5z"/><path fill="#fff" d="M15.5,51h-10C5.224,51,5,50.776,5,50.5S5.224,50,5.5,50h10c0.276,0,0.5,0.224,0.5,0.5 S15.777,51,15.5,51z"/><path fill="#fff" d="M18.5,51h-1c-0.276,0-0.5-0.224-0.5-0.5s0.224-0.5,0.5-0.5h1c0.276,0,0.5,0.224,0.5,0.5 S18.777,51,18.5,51z"/><path fill="#fff" d="M23.491,53H14.5c-0.276,0-0.5-0.224-0.5-0.5s0.224-0.5,0.5-0.5h8.991c0.276,0,0.5,0.224,0.5,0.5 S23.767,53,23.491,53z"/><path fill="#fff" d="M12.5,53h-1c-0.276,0-0.5-0.224-0.5-0.5s0.224-0.5,0.5-0.5h1c0.276,0,0.5,0.224,0.5,0.5 S12.777,53,12.5,53z"/><path fill="#fff" d="M9.5,53h-2C7.224,53,7,52.776,7,52.5S7.224,52,7.5,52h2c0.276,0,0.5,0.224,0.5,0.5S9.777,53,9.5,53z"/><path fill="#fff" d="M15.5,55h-2c-0.276,0-0.5-0.224-0.5-0.5s0.224-0.5,0.5-0.5h2c0.276,0,0.5,0.224,0.5,0.5 S15.776,55,15.5,55z"/><path fill="#fff" d="M18.5,46c-0.177,0-0.823,0-1,0c-0.276,0-0.5,0.224-0.5,0.5s0.224,0.5,0.5,0.5c0.177,0,0.823,0,1,0 c0.276,0,0.5-0.224,0.5-0.5S18.776,46,18.5,46z"/><path fill="#fff" d="M18.5,48c-0.177,0-4.823,0-5,0c-0.276,0-0.5,0.224-0.5,0.5s0.224,0.5,0.5,0.5c0.177,0,4.823,0,5,0 c0.276,0,0.5-0.224,0.5-0.5S18.776,48,18.5,48z"/><path fill="#fff" d="M23.5,50c-0.177,0-2.823,0-3,0c-0.276,0-0.5,0.224-0.5,0.5s0.224,0.5,0.5,0.5c0.177,0,2.823,0,3,0 c0.276,0,0.5-0.224,0.5-0.5S23.776,50,23.5,50z"/><g><path fill="#fff" d="M72.5,24h-10c-0.276,0-0.5-0.224-0.5-0.5s0.224-0.5,0.5-0.5h10c0.276,0,0.5,0.224,0.5,0.5 S72.776,24,72.5,24z"/><path fill="#fff" d="M76.5,24h-2c-0.276,0-0.5-0.224-0.5-0.5s0.224-0.5,0.5-0.5h2c0.276,0,0.5,0.224,0.5,0.5 S76.776,24,76.5,24z"/><path fill="#fff" d="M81.5,26h-10c-0.276,0-0.5-0.224-0.5-0.5s0.224-0.5,0.5-0.5h10c0.276,0,0.5,0.224,0.5,0.5 S81.777,26,81.5,26z"/><path fill="#fff" d="M69.5,26h-1c-0.276,0-0.5-0.224-0.5-0.5s0.224-0.5,0.5-0.5h1c0.276,0,0.5,0.224,0.5,0.5 S69.776,26,69.5,26z"/><path fill="#fff" d="M66.47,26H64.5c-0.276,0-0.5-0.224-0.5-0.5s0.224-0.5,0.5-0.5h1.97c0.276,0,0.5,0.224,0.5,0.5 S66.746,26,66.47,26z"/><path fill="#fff" d="M75.5,22h-5c-0.276,0-0.5-0.224-0.5-0.5s0.224-0.5,0.5-0.5h5c0.276,0,0.5,0.224,0.5,0.5 S75.777,22,75.5,22z"/><path fill="#fff" d="M72.5,28h-2c-0.276,0-0.5-0.224-0.5-0.5s0.224-0.5,0.5-0.5h2c0.276,0,0.5,0.224,0.5,0.5 S72.776,28,72.5,28z"/></g><g><path fill="#fff" d="M74.998,50.002c0,0.447-0.009,0.892-0.034,1.334l-0.686,0.677l0.544,0.965 c-0.066,0.577-0.146,1.148-0.263,1.712l-0.723,0.759l0.244,1.105c-0.149,0.503-0.329,0.997-0.512,1.485 c-0.431,0.274-0.895,0.62-0.895,0.62s0.071,0.588,0.137,1.189c-0.204,0.429-0.396,0.854-0.624,1.268 c-0.499,0.186-1.059,0.378-1.059,0.378s-0.033,0.645,0.047,1.288c-0.232,0.346-0.489,0.68-0.739,1.012 c-0.514,0.071-1.138,0.105-1.138,0.105s0.017,0.698-0.01,1.317c-0.245,0.277-0.49,0.559-0.749,0.823 c-0.597-0.035-1.097,0.075-1.097,0.075s-0.217,0.493-0.263,1.21c-0.256,0.224-0.512,0.454-0.778,0.667 c-0.519,0-1.153,0.047-1.153,0.047s-0.39,0.446-0.511,1.176c-0.323,0.213-0.653,0.404-0.988,0.6 c-0.477-0.186-0.873-0.149-0.873-0.149s-0.256,0.379-0.452,0.884c-0.408,0.206-0.822,0.417-1.243,0.599 c-0.521-0.274-0.762-0.432-0.95-0.371c-0.19,0.062-0.324,0.352-0.638,0.976c-0.585,0.2-1.182,0.388-1.788,0.54 c-0.324-0.392-0.536-0.621-0.762-0.601c-0.238,0.02-0.494,0.314-0.915,0.979C54.783,72.905,53.407,73,52,73 c-2.663,0-5.217-0.415-7.596-1.248c-0.245-0.643-0.448-0.999-0.718-1.063c-0.224-0.053-0.493,0.099-0.868,0.457 c-0.421-0.184-0.838-0.392-1.245-0.6c-0.116-0.663-0.231-0.984-0.481-1.037c-0.186-0.039-0.448,0.072-0.843,0.302 c-0.333-0.199-0.665-0.384-0.988-0.6c0-0.867-0.114-1.274-0.471-1.384c-0.256-0.079-0.637-0.006-1.191,0.161 c-0.266-0.214-0.522-0.442-0.778-0.667c0-0.907-0.003-1.312-0.298-1.417c-0.197-0.069-0.522-0.006-1.061,0.132 c-0.256-0.267-0.505-0.545-0.749-0.823c0.129-0.914,0.116-1.291-0.105-1.426c-0.186-0.113-0.52-0.053-1.043,0.005 c-0.248-0.335-0.508-0.663-0.738-1.012c0.301-0.77,0.378-1.126,0.192-1.322c-0.17-0.181-0.562-0.229-1.204-0.342 c-0.227-0.415-0.423-0.838-0.624-1.268c0.329-0.6,0.515-0.969,0.37-1.244c-0.118-0.225-0.461-0.388-1.13-0.563 c-0.179-0.486-0.36-0.982-0.507-1.482c0.575-0.537,0.81-0.845,0.653-1.132c-0.124-0.227-0.493-0.438-1.134-0.737 c-0.114-0.563-0.195-1.136-0.264-1.712c0.811-0.329,1.027-0.575,0.921-0.816c-0.109-0.25-0.563-0.496-1.063-0.826 c-0.022-0.44-0.034-0.885-0.034-1.333c0-0.194-0.005-0.388,0-0.58C31.302,36.203,39.493,28.154,52,28.154 s21.848,9.199,22.998,21.267C75.003,49.615,74.998,49.808,74.998,50.002z"/><path fill="#006439" d="M69.265,56.377c0.008-0.174,0.008-0.356,0.008-0.538c0-0.328-0.008-0.646-0.026-0.966 c2.226-0.054,2.917,1.85,4.83,1.687c0.182-0.614,0.351-1.234,0.481-1.869c-2.437,0.297-3.331-1.76-5.53-1.751 c-0.091-0.593-0.228-1.176-0.383-1.742c2.655-0.118,3.6,2.188,6.175,1.78c0.069-0.542,0.113-1.089,0.144-1.642 c-3.002,0.321-4.145-2.153-6.892-1.844c-0.255-0.665-0.565-1.304-0.902-1.915c3.45-0.609,4.629,2.268,7.83,1.844 c-0.33-12.432-10.488-22.417-23-22.417s-22.67,9.985-22.998,22.417h0.001c3.191,0.424,4.371-2.454,7.819-1.844 c-0.337,0.611-0.637,1.25-0.902,1.915c-2.747-0.308-3.889,2.165-6.883,1.844h-0.001c0.031,0.553,0.074,1.1,0.144,1.642h0.001 c2.576,0.408,3.511-1.898,6.175-1.78c-0.164,0.566-0.292,1.149-0.392,1.742c-2.195-0.009-3.092,2.042-5.521,1.751 c0.13,0.635,0.299,1.255,0.481,1.869c1.905,0.158,2.599-1.741,4.822-1.686c-0.018,0.32-0.028,0.638-0.028,0.966 c0,0.183,0,0.365,0.009,0.538c-1.89-0.018-2.522,1.704-4.296,1.664c0.229,0.615,0.482,1.218,0.76,1.806 c1.261-0.115,1.739-1.736,3.691-1.601c0.063,0.428,0.137,0.857,0.228,1.276c-1.706-0.117-2.096,1.427-3.294,1.593 c0.314,0.57,0.652,1.125,1.011,1.664c0.721-0.412,1.36-1.554,2.721-1.625c-0.137-0.437-0.264-0.893-0.374-1.34 c1.238,0,2.651-0.484,3.835-1.568c-0.383-2.189,3.005-4.414,3.005-6.019c0-1.742-0.874-2.7-0.874-5.053 c0-1.732,0.847-3.63,2.112-4.915c0.246-0.255,0.501-0.455,0.792-0.639c-1.165,1.45-2.068,3.174-2.068,5.162 c0,2.208,1.029,3.375,1.029,5.417c0,2.034-2.978,3.803-2.978,5.9c0,0.83,0.263,1.642,1.129,3.229 c-1.34,1.341-3.078,2.07-4.198,2.07c-0.374,0-0.565-0.118-0.692-0.401c-0.118-0.246-0.218-0.501-0.319-0.747 c-1.176,0.044-1.734,1.08-2.383,1.542c0.366,0.489,0.746,0.962,1.148,1.42c0.45-0.505,1.036-1.283,1.89-1.512 c0.155,0.31,0.328,0.611,0.5,0.912c-0.731,0.194-1.248,0.922-1.643,1.424c0.434,0.448,0.891,0.873,1.359,1.284 c0.293-0.446,0.735-0.99,1.221-1.286c0.191,0.255,0.383,0.511,0.592,0.757c-0.417,0.278-0.781,0.772-1.035,1.196 c0.536,0.43,1.088,0.842,1.662,1.223c0.353-2.301,3.462-3.9,2.607-6.588c0.283,0.475,0.62,1.076,0.62,1.797 c0,1.935-2.013,3.477-2.239,5.391c0.434,0.258,0.872,0.505,1.324,0.735c0.132-2.118,2.281-4.428,2.281-6.172 c0-1.97-2.577-3.949-2.577-6.275c0-2.316,2.968-3.93,2.968-5.973c0-2.042-1.266-3.219-1.266-5.827c0-1.916,0.912-3.858,2.314-5.099 c0.255-0.218,0.492-0.391,0.793-0.547c-1.33,1.588-2.095,3.037-2.095,5.226c0,2.462,1.449,3.821,1.449,6.228 s-2.915,3.748-2.915,5.991c0,2.253,2.715,4.141,2.715,6.449c0,2.072-2.331,4.147-2.421,6.598c0.517,0.225,1.05,0.419,1.586,0.606 c-0.22-2.483,2.392-5.037,2.392-7.058c0-2.243-2.814-4.167-2.814-6.594c0-2.416,2.859-3.538,2.859-6.028 c0-2.48-1.758-3.857-1.758-6.592c0-2.143,1.058-4.067,2.595-5.253c0.037-0.028,0.064-0.054,0.101-0.083 c0.146-0.1,0.263,0.028,0.163,0.155c-1.092,1.358-1.675,2.745-1.675,4.779c0,2.516,2.022,4.55,2.022,6.986 c0,2.863-2.715,3.683-2.715,6.036c0,2.362,2.907,4.242,2.907,6.74c0,2.283-2.665,4.815-2.289,7.454 c0.553,0.144,1.11,0.275,1.678,0.378c-0.447-3.275,2.196-5.647,2.196-7.795c0-2.362-3.014-4.469-3.014-6.776 c0-2.17,2.158-2.882,2.44-5.106c0.046-0.301,0.291-0.529,0.619-0.474c0.447,0.082,1.003,0.374,1.886,0.374s1.449-0.292,1.886-0.374 c0.337-0.055,0.583,0.172,0.62,0.474c0.283,2.225,2.441,2.936,2.441,5.106c0,2.308-3.006,4.414-3.006,6.776 c0,2.148,2.637,4.521,2.187,7.796c0.001,0,0.001,0,0.002,0c0.565-0.102,1.118-0.232,1.666-0.375 c0.003-0.001,0.006-0.001,0.009-0.002c0.379-2.64-2.288-5.172-2.288-7.456c0-2.499,2.905-4.378,2.905-6.74 c0-2.353-2.705-3.173-2.705-6.036c0-2.435,2.013-4.469,2.013-6.986c0-2.034-0.583-3.421-1.667-4.779 c-0.109-0.128,0.009-0.255,0.155-0.155c0.037,0.028,0.063,0.054,0.1,0.083c1.54,1.186,2.595,3.109,2.595,5.253 c0,2.736-1.758,4.113-1.758,6.592c0,2.49,2.86,3.612,2.86,6.028c0,2.426-2.814,4.351-2.814,6.594c0,2.023,2.614,4.578,2.391,7.062 c0.008-0.003,0.017-0.006,0.025-0.009c0.527-0.184,1.05-0.374,1.558-0.594c0.001-0.001,0.003-0.001,0.005-0.002 c-0.089-2.453-2.422-4.528-2.422-6.602c0-2.308,2.714-4.196,2.714-6.449c0-2.242-2.914-3.584-2.914-5.991s1.448-3.766,1.448-6.228 c0-2.189-0.765-3.638-2.085-5.226c0.291,0.155,0.537,0.328,0.783,0.547c1.402,1.241,2.312,3.183,2.312,5.099 c0,2.608-1.266,3.784-1.266,5.827c0,2.042,2.979,3.657,2.979,5.973c0,2.326-2.579,4.305-2.579,6.275 c0,1.744,2.143,4.057,2.273,6.176c0.002-0.001,0.005-0.002,0.007-0.003c0.445-0.227,0.879-0.47,1.306-0.724 c0.003-0.002,0.008-0.005,0.011-0.007c-0.223-1.916-2.24-3.458-2.24-5.395c0-0.721,0.337-1.322,0.619-1.797 c-0.846,2.688,2.26,4.289,2.609,6.592c0.001-0.001,0.003-0.002,0.006-0.003c0.552-0.367,1.081-0.762,1.597-1.175 c0.021-0.016,0.041-0.03,0.062-0.046c-0.247-0.425-0.62-0.921-1.03-1.2c0.2-0.246,0.4-0.501,0.583-0.757 c0.498,0.298,0.934,0.844,1.226,1.29c0.01-0.009,0.02-0.018,0.029-0.026c0.457-0.401,0.902-0.814,1.324-1.25 c0.002-0.002,0.005-0.005,0.007-0.008c-0.396-0.501-0.905-1.234-1.648-1.429c0.182-0.301,0.346-0.601,0.501-0.912 c0.856,0.23,1.452,1.013,1.894,1.518c0.003-0.003,0.006-0.007,0.009-0.01c0.394-0.45,0.768-0.914,1.127-1.394 c0.005-0.006,0.009-0.013,0.014-0.018c-0.642-0.46-1.2-1.502-2.379-1.545c-0.1,0.246-0.208,0.501-0.319,0.747 c-0.137,0.283-0.328,0.401-0.693,0.401c-1.129,0-2.869-0.729-4.206-2.07c0.874-1.587,1.137-2.399,1.137-3.229 c0-2.097-2.978-3.866-2.978-5.9c0-2.042,1.02-3.209,1.02-5.417c0-1.988-0.892-3.712-2.068-5.162 c0.292,0.184,0.547,0.384,0.793,0.639c1.275,1.284,2.122,3.183,2.122,4.915c0,2.353-0.883,3.311-0.883,5.053 c0,1.605,3.389,3.829,3.006,6.019c1.183,1.084,2.595,1.568,3.834,1.568c-0.109,0.446-0.237,0.903-0.373,1.34 c1.372,0.072,2.011,1.22,2.726,1.629c0.36-0.54,0.698-1.096,1.012-1.666c-1.204-0.16-1.593-1.712-3.301-1.594 c0.091-0.42,0.164-0.849,0.227-1.276c1.965-0.136,2.432,1.494,3.699,1.603c0.002-0.006,0.006-0.01,0.008-0.016 c0.273-0.578,0.521-1.168,0.745-1.772c0.002-0.007,0.005-0.013,0.007-0.02C71.787,58.088,71.157,56.36,69.265,56.377z M37.652,46.199c-3.315-1.149-5.492,2.143-8.042,1.378c2.477-2.636,4.49-5.626,4.226-9.083c-0.018-0.201,0.164-0.32,0.337-0.201 c1.266,0.876,2.149,2.335,2.423,3.968c1.749-1.132,3.806-1.287,5.501-0.593C40.347,42.89,38.836,44.431,37.652,46.199z M56.395,42.352c0.037,0.118-0.009,0.201-0.146,0.136c-0.383-0.172-0.829-0.255-1.303-0.255c-0.874,0-1.639,0.32-2.095,0.875 c-0.13,0.424-0.13,0.873-0.131,1.311c-0.001,0.514,0.107,1.002,0.287,1.44c0.501-0.055,0.381-0.936,0.8-0.936 c0.346,0,0.509,0.247,1.111,0.247c0.547,0,0.766-0.155,1.012-0.33c0.474,0.064,0.583,0.53,0.583,1.059 c0,2.388-2.185,5.671-4.518,5.671c-2.331,0-4.518-3.282-4.518-5.671c0-0.529,0.083-1.004,0.546-1.004 c0.392,0,0.457,0.275,1.058,0.275c0.591,0,0.865-0.247,1.211-0.247c0.355,0,0.483,0.283,0.839,0.365 c0.11-0.271,0.148-0.631,0.149-1.012c0.001-0.401-0.039-0.826-0.141-1.167c-0.455-0.555-1.22-0.875-2.094-0.875 c-0.474,0-0.912,0.083-1.294,0.255c-0.136,0.064-0.191-0.018-0.154-0.136c0.474-1.57,2.263-2.782,4.404-2.782 C54.141,39.57,55.93,40.782,56.395,42.352z M56.349,43.528c0,0.2-0.063,0.375-0.274,0.566c-0.4-0.446-1.22-0.438-2.149-0.117 c-0.055-0.109-0.055-0.283-0.018-0.393C54.291,43.156,54.891,43,55.401,43C56.04,42.999,56.349,43.218,56.349,43.528z M47.642,43.528c0-0.31,0.32-0.529,0.948-0.529c0.874,0,1.748,0.538,1.712,1.021c-0.983-0.365-1.931-0.383-2.377,0.072 C47.715,43.902,47.642,43.728,47.642,43.528z M60.084,40.199c-0.072,0.174-0.237,0.229-0.411,0.137 c-2.312-1.149-4.912-1.805-7.672-1.805c-2.76,0-5.369,0.657-7.682,1.805c-0.172,0.091-0.337,0.037-0.409-0.137 c-0.666-1.495-1.558-2.882-2.578-4.186c1.694,0.12,3.16,0.703,4.344,1.67c-0.501-1.432-1.148-2.682-1.949-3.894 c2.149,0.228,3.943,1.012,5.254,2.362l1.029-2.7l-2.286-2.016l3.051-0.209L52,28.393l1.217,2.833l3.051,0.209l-2.278,2.016 l1.02,2.7c1.312-1.351,3.115-2.135,5.265-2.362c-0.811,1.212-1.449,2.462-1.958,3.894c1.183-0.966,2.659-1.55,4.344-1.67 C61.65,37.318,60.748,38.704,60.084,40.199z M61.905,41.668c1.695-0.693,3.744-0.538,5.502,0.593 c0.274-1.633,1.156-3.092,2.414-3.968c0.172-0.118,0.354,0,0.346,0.201c-0.274,3.457,1.748,6.447,4.225,9.083 c-2.56,0.766-4.736-2.526-8.042-1.378C65.157,44.431,63.645,42.89,61.905,41.668z M52.001,35.002c0,0-2.309,1.759-2.391,1.824 c-0.091,0.063-0.046,0.172,0.072,0.154c0.2-0.037,1.18-0.209,2.318-0.209s2.109,0.174,2.317,0.209 c0.109,0.018,0.155-0.091,0.064-0.154C54.31,36.761,52.001,35.002,52.001,35.002z M52.009,47.068c-0.282,0-0.342-0.092-0.534-0.092 c-0.182,0-0.537,0.146-0.619,0.274c0.009,0.074,0.037,0.128,0.083,0.183c0.409,0.064,0.598,0.299,1.072,0.299 s0.649-0.235,1.059-0.299c0.054-0.055,0.072-0.109,0.083-0.183c-0.072-0.128-0.429-0.274-0.611-0.274 C52.35,46.976,52.292,47.068,52.009,47.068z M50.329,48.398c0,0-0.128,0.046-0.154,0.155c0.483,0.374,0.811,1.221,1.821,1.221 c1.011,0,1.349-0.849,1.831-1.221c-0.037-0.109-0.154-0.155-0.154-0.155s-0.638,0.155-1.678,0.155 C50.958,48.553,50.329,48.398,50.329,48.398z"/><path fill="#472b29" d="M51.999,27.4C64.461,27.4,74.6,37.538,74.6,49.999C74.6,62.461,64.461,72.6,51.999,72.6 C39.538,72.6,29.4,62.462,29.4,50S39.538,27.4,51.999,27.4 M51.999,26C38.765,26,28,36.766,28,50s10.765,24,23.999,24 S76,63.233,76,49.999S65.234,26,51.999,26L51.999,26z"/></g><g><path fill="#fdfcef" d="M36.5,73.5c0,0,1.567,0,3.5,0s3.5-1.567,3.5-3.5c0-1.781-1.335-3.234-3.055-3.455 C40.473,66.366,40.5,66.187,40.5,66c0-1.933-1.567-3.5-3.5-3.5c-1.032,0-1.95,0.455-2.59,1.165 c-0.384-1.808-1.987-3.165-3.91-3.165c-2.209,0-4,1.791-4,4c0,0.191,0.03,0.374,0.056,0.558C26.128,64.714,25.592,64.5,25,64.5 c-1.228,0-2.245,0.887-2.455,2.055C22.366,66.527,22.187,66.5,22,66.5c-1.933,0-3.5,1.567-3.5,3.5s1.567,3.5,3.5,3.5s7.5,0,7.5,0 V74h7V73.5z"/><path fill="#472b29" d="M38.25,69C38.112,69,38,68.888,38,68.75c0-1.223,0.995-2.218,2.218-2.218 c0.034,0.009,0.737-0.001,1.244,0.136c0.133,0.036,0.212,0.173,0.176,0.306c-0.036,0.134-0.173,0.213-0.306,0.176 c-0.444-0.12-1.1-0.12-1.113-0.118c-0.948,0-1.719,0.771-1.719,1.718C38.5,68.888,38.388,69,38.25,69z"/><circle cx="31.5" cy="73.5" r=".5" fill="#472b29"/><path fill="#472b29" d="M40,74h-3.5c-0.276,0-0.5-0.224-0.5-0.5s0.224-0.5,0.5-0.5H40c1.654,0,3-1.346,3-3 c0-1.496-1.125-2.768-2.618-2.959c-0.134-0.018-0.255-0.088-0.336-0.196s-0.115-0.244-0.094-0.377C39.975,66.314,40,66.16,40,66 c0-1.654-1.346-3-3-3c-0.85,0-1.638,0.355-2.219,1c-0.125,0.139-0.321,0.198-0.5,0.148c-0.182-0.049-0.321-0.195-0.36-0.379 C33.58,62.165,32.141,61,30.5,61c-1.93,0-3.5,1.57-3.5,3.5c0,0.143,0.021,0.28,0.041,0.418c0.029,0.203-0.063,0.438-0.242,0.54 s-0.396,0.118-0.556-0.01C25.878,65.155,25.449,65,25,65c-0.966,0-1.792,0.691-1.963,1.644c-0.048,0.267-0.296,0.446-0.569,0.405 C22.314,67.025,22.16,67,22,67c-1.654,0-3,1.346-3,3s1.346,3,3,3h7.5c0.276,0,0.5,0.224,0.5,0.5S29.776,74,29.5,74H22 c-2.206,0-4-1.794-4-4s1.794-4,4-4c0.059,0,0.116,0.002,0.174,0.006C22.588,64.82,23.711,64,25,64c0.349,0,0.689,0.061,1.011,0.18 C26.176,61.847,28.126,60,30.5,60c1.831,0,3.466,1.127,4.153,2.774C35.333,62.276,36.155,62,37,62c2.206,0,4,1.794,4,4 c0,0.048-0.001,0.095-0.004,0.142C42.739,66.59,44,68.169,44,70C44,72.206,42.206,74,40,74z"/><path fill="#472b29" d="M34.5,73c-0.159,0-0.841,0-1,0c-0.276,0-0.5,0.224-0.5,0.5s0.224,0.5,0.5,0.5c0.159,0,0.841,0,1,0 c0.276,0,0.5-0.224,0.5-0.5S34.776,73,34.5,73z"/></g></svg>