<svg xmlns="http://www.w3.org/2000/svg"  viewBox="0 0 100 100" width="32px" height="32px"><path fill="#c7ede6" d="M87.215,56.71C88.35,54.555,89,52.105,89,49.5c0-6.621-4.159-12.257-10.001-14.478	C78.999,35.015,79,35.008,79,35c0-11.598-9.402-21-21-21c-9.784,0-17.981,6.701-20.313,15.757C36.211,29.272,34.638,29,33,29	c-7.692,0-14.023,5.793-14.89,13.252C12.906,43.353,9,47.969,9,53.5C9,59.851,14.149,65,20.5,65c0.177,0,0.352-0.012,0.526-0.022	C21.022,65.153,21,65.324,21,65.5C21,76.822,30.178,86,41.5,86c6.437,0,12.175-2.972,15.934-7.614C59.612,80.611,62.64,82,66,82	c4.65,0,8.674-2.65,10.666-6.518C77.718,75.817,78.837,76,80,76c6.075,0,11-4.925,11-11C91,61.689,89.53,58.727,87.215,56.71z"/><path fill="#fdfcef" d="M79.875,46.5c0,0,3.64,0,6.125,0s4.5-2.015,4.5-4.5c0-2.333-1.782-4.229-4.055-4.455 C86.467,37.364,86.5,37.187,86.5,37c0-2.485-2.015-4.5-4.5-4.5c-1.438,0-2.703,0.686-3.527,1.736 C78.333,31.6,76.171,29.5,73.5,29.5c-2.761,0-5,2.239-5,5c0,0.446,0.077,0.87,0.187,1.282C68.045,35.005,67.086,34.5,66,34.5 c-1.781,0-3.234,1.335-3.455,3.055C62.364,37.533,62.187,37.5,62,37.5c-2.485,0-4.5,2.015-4.5,4.5s2.015,4.5,4.5,4.5s9.5,0,9.5,0 h5.375V47h3V46.5z"/><path fill="#472b29" d="M73.5,29c-3.033,0-5.5,2.467-5.5,5.5c0,0.016,0,0.031,0,0.047C67.398,34.192,66.71,34,66,34 c-1.831,0-3.411,1.261-3.858,3.005C62.095,37.002,62.048,37,62,37c-2.757,0-5,2.243-5,5s2.243,5,5,5h14.875 c0.276,0,0.5-0.224,0.5-0.5s-0.224-0.5-0.5-0.5H62c-2.206,0-4-1.794-4-4s1.794-4,4-4c0.117,0,0.23,0.017,0.343,0.032l0.141,0.019 c0.021,0.003,0.041,0.004,0.062,0.004c0.246,0,0.462-0.185,0.495-0.437C63.232,36.125,64.504,35,66,35 c0.885,0,1.723,0.401,2.301,1.1c0.098,0.118,0.241,0.182,0.386,0.182c0.078,0,0.156-0.018,0.228-0.056 c0.209-0.107,0.314-0.346,0.254-0.573C69.054,35.218,69,34.852,69,34.5c0-2.481,2.019-4.5,4.5-4.5c2.381,0,4.347,1.872,4.474,4.263 c0.011,0.208,0.15,0.387,0.349,0.45c0.05,0.016,0.101,0.024,0.152,0.024c0.15,0,0.296-0.069,0.392-0.192 C79.638,33.563,80.779,33,82,33c2.206,0,4,1.794,4,4c0,0.117-0.017,0.23-0.032,0.343l-0.019,0.141 c-0.016,0.134,0.022,0.268,0.106,0.373c0.084,0.105,0.207,0.172,0.34,0.185C88.451,38.247,90,39.949,90,42c0,2.206-1.794,4-4,4 h-6.125c-0.276,0-0.5,0.224-0.5,0.5s0.224,0.5,0.5,0.5H86c2.757,0,5-2.243,5-5c0-2.397-1.689-4.413-4.003-4.877 C86.999,37.082,87,37.041,87,37c0-2.757-2.243-5-5-5c-1.176,0-2.293,0.416-3.183,1.164C78.219,30.76,76.055,29,73.5,29L73.5,29z"/><path fill="#472b29" d="M72,36c-1.403,0-2.609,0.999-2.913,2.341C68.72,38.119,68.301,38,67.875,38 c-1.202,0-2.198,0.897-2.353,2.068C65.319,40.022,65.126,40,64.938,40c-1.529,0-2.811,1.2-2.918,2.732 C62.01,42.87,62.114,42.99,62.251,43c0.006,0,0.012,0,0.018,0c0.13,0,0.24-0.101,0.249-0.232c0.089-1.271,1.151-2.268,2.419-2.268 c0.229,0,0.47,0.042,0.738,0.127c0.022,0.007,0.045,0.01,0.067,0.01c0.055,0,0.11-0.02,0.156-0.054 C65.962,40.537,66,40.455,66,40.375c0-1.034,0.841-1.875,1.875-1.875c0.447,0,0.885,0.168,1.231,0.473 c0.047,0.041,0.106,0.063,0.165,0.063c0.032,0,0.063-0.006,0.093-0.019c0.088-0.035,0.148-0.117,0.155-0.212 C69.623,37.512,70.712,36.5,72,36.5c0.208,0,0.425,0.034,0.682,0.107c0.023,0.007,0.047,0.01,0.07,0.01 c0.109,0,0.207-0.073,0.239-0.182c0.038-0.133-0.039-0.271-0.172-0.309C72.517,36.04,72.256,36,72,36L72,36z"/><path fill="#472b29" d="M85.883,37.5c-1.326,0-2.508,0.897-2.874,2.182c-0.038,0.133,0.039,0.271,0.172,0.309 C83.205,39.997,83.228,40,83.25,40c0.109,0,0.209-0.072,0.24-0.182C83.795,38.748,84.779,38,85.883,38 c0.117,0,0.23,0.014,0.342,0.029c0.012,0.002,0.023,0.003,0.035,0.003c0.121,0,0.229-0.092,0.246-0.217 c0.019-0.137-0.077-0.263-0.214-0.281C86.158,37.516,86.022,37.5,85.883,37.5L85.883,37.5z"/><path fill="#fff" d="M15.405,51H5.5C5.224,51,5,50.776,5,50.5S5.224,50,5.5,50h9.905c0.276,0,0.5,0.224,0.5,0.5 S15.682,51,15.405,51z"/><path fill="#fff" d="M18.5,51h-1c-0.276,0-0.5-0.224-0.5-0.5s0.224-0.5,0.5-0.5h1c0.276,0,0.5,0.224,0.5,0.5 S18.777,51,18.5,51z"/><path fill="#fff" d="M23.491,53H14.5c-0.276,0-0.5-0.224-0.5-0.5s0.224-0.5,0.5-0.5h8.991c0.276,0,0.5,0.224,0.5,0.5 S23.767,53,23.491,53z"/><path fill="#fff" d="M12.5,53h-1c-0.276,0-0.5-0.224-0.5-0.5s0.224-0.5,0.5-0.5h1c0.276,0,0.5,0.224,0.5,0.5 S12.777,53,12.5,53z"/><path fill="#fff" d="M9.5,53h-2C7.224,53,7,52.776,7,52.5S7.224,52,7.5,52h2c0.276,0,0.5,0.224,0.5,0.5S9.777,53,9.5,53z"/><path fill="#fff" d="M15.5,55h-2c-0.276,0-0.5-0.224-0.5-0.5s0.224-0.5,0.5-0.5h2c0.276,0,0.5,0.224,0.5,0.5 S15.776,55,15.5,55z"/><path fill="#fff" d="M18.5,46c-0.177,0-0.823,0-1,0c-0.276,0-0.5,0.224-0.5,0.5c0,0.276,0.224,0.5,0.5,0.5 c0.177,0,0.823,0,1,0c0.276,0,0.5-0.224,0.5-0.5C19,46.224,18.776,46,18.5,46z"/><path fill="#fff" d="M18.5,48c-0.177,0-4.823,0-5,0c-0.276,0-0.5,0.224-0.5,0.5c0,0.276,0.224,0.5,0.5,0.5 c0.177,0,4.823,0,5,0c0.276,0,0.5-0.224,0.5-0.5C19,48.224,18.776,48,18.5,48z"/><path fill="#fff" d="M23.5,50c-0.177,0-2.823,0-3,0c-0.276,0-0.5,0.224-0.5,0.5c0,0.276,0.224,0.5,0.5,0.5 c0.177,0,2.823,0,3,0c0.276,0,0.5-0.224,0.5-0.5C24,50.224,23.776,50,23.5,50z"/><path fill="#fff" d="M68.5,23h-10c-0.276,0-0.5-0.224-0.5-0.5s0.224-0.5,0.5-0.5h10c0.276,0,0.5,0.224,0.5,0.5 S68.776,23,68.5,23z"/><path fill="#fff" d="M72.5,23h-2c-0.276,0-0.5-0.224-0.5-0.5s0.224-0.5,0.5-0.5h2c0.276,0,0.5,0.224,0.5,0.5 S72.776,23,72.5,23z"/><path fill="#fff" d="M77.5,25h-10c-0.276,0-0.5-0.224-0.5-0.5s0.224-0.5,0.5-0.5h10c0.276,0,0.5,0.224,0.5,0.5 S77.777,25,77.5,25z"/><path fill="#fff" d="M65.5,25h-1c-0.276,0-0.5-0.224-0.5-0.5s0.224-0.5,0.5-0.5h1c0.276,0,0.5,0.224,0.5,0.5 S65.776,25,65.5,25z"/><path fill="#fff" d="M62.375,25H60.5c-0.276,0-0.5-0.224-0.5-0.5s0.224-0.5,0.5-0.5h1.875c0.276,0,0.5,0.224,0.5,0.5 S62.651,25,62.375,25z"/><path fill="#fff" d="M71.5,21h-5c-0.276,0-0.5-0.224-0.5-0.5s0.224-0.5,0.5-0.5h5c0.276,0,0.5,0.224,0.5,0.5 S71.777,21,71.5,21z"/><path fill="#fff" d="M68.5,27h-2c-0.276,0-0.5-0.224-0.5-0.5s0.224-0.5,0.5-0.5h2c0.276,0,0.5,0.224,0.5,0.5 S68.776,27,68.5,27z"/><g><polygon fill="#5a5c70" points="48.308,63.3 44.085,58.685 55.305,58.347 55.342,63.3"/><path fill="#472b29" d="M54.611,59.068l0.026,3.532h-6.02l-2.984-3.262L54.611,59.068 M56,57.625l-13.462,0.405L48,64 h8.047L56,57.625L56,57.625z"/></g><g><polygon fill="#5a5c70" points="40.952,67.3 40.937,55.735 45.3,59.188 45.3,67.3"/><path fill="#472b29" d="M41.639,57.183l2.961,2.343V66.6h-2.949L41.639,57.183 M40.236,54.287L40.253,68H46v-9.151 L40.236,54.287L40.236,54.287z"/></g><g><polygon fill="#5a5c70" points="42.393,49.548 42.393,37.026 50.989,40.398 50.916,49.548"/><path fill="#472b29" d="M43.092,38.053l7.192,2.822l-0.063,7.974h-7.129V38.053 M41.692,36v14.248h9.918l0.082-10.325 L41.692,36L41.692,36z"/></g><g><polygon fill="#5a5c70" points="69.585,67.3 69.585,36.7 71.85,36.7 75.3,38.596 75.3,67.3"/><path fill="#472b29" d="M71.67,37.4l2.93,1.61V66.6h-4.315V37.4H71.67 M72.029,36h-3.144v32H76V38.182L72.029,36L72.029,36z"/></g><g><path fill="#7e96af" d="M54.7,67.3V59c0-0.27-0.155-0.515-0.398-0.631C54.206,58.322,54.103,58.3,54,58.3 c-0.157,0-0.312,0.053-0.439,0.154L48,62.928l-5.561-4.474C42.312,58.353,42.157,58.3,42,58.3c-0.103,0-0.206,0.022-0.302,0.069 C41.455,58.485,41.3,58.73,41.3,59v8.3H24.7V36.7h16.787l5.836,5.713c0.136,0.134,0.313,0.2,0.49,0.2 c0.177,0,0.354-0.066,0.489-0.199l5.844-5.714H71.3v30.6H54.7z"/><path fill="#472b29" d="M70.6,37.4v29.2H55.4V59c0-0.539-0.309-1.03-0.795-1.263C54.412,57.645,54.206,57.6,54,57.6 c-0.313,0-0.624,0.105-0.878,0.309L48,62.029l-5.123-4.12C42.624,57.705,42.313,57.6,42,57.6c-0.205,0-0.412,0.045-0.605,0.137 C40.909,57.97,40.6,58.461,40.6,59v7.6H25.4V37.4h15.801l5.632,5.513c0.272,0.266,0.626,0.4,0.979,0.4 c0.353,0,0.707-0.133,0.979-0.399l5.64-5.514H70.6 M72,36H53.861l-6.048,5.913L41.772,36H24v32h18v-9l6,4.826L54,59v9h18V36L72,36z"/></g><g><path fill="#fdfcee" d="M56.604,67.75l0.244-13.833c0.005-0.306-0.108-0.591-0.318-0.806 c-0.212-0.216-0.507-0.34-0.808-0.34c-0.227,0-0.447,0.07-0.637,0.202l-5.069,3.514c-0.248,0.172-0.538,0.263-0.837,0.263 c-0.575,0-1.102-0.336-1.342-0.856c-0.176-0.381-0.181-0.819-0.015-1.204c0.166-0.385,0.49-0.681,0.887-0.813l1.787-0.596 l5.147-3.081c0.071-0.043,0.116-0.117,0.121-0.199l0.077-1.228c0.053-0.844,0.756-1.505,1.602-1.505h0.597 c0.466,0.061,0.756,0.221,0.856,0.487c0.027,0.073,0.087,0.129,0.163,0.151c0.023,0.007,0.047,0.011,0.071,0.011 c0.053,0,0.104-0.017,0.148-0.049l4.175-3.062c0.251-0.184,0.547-0.281,0.858-0.281c0.467,0,0.909,0.227,1.182,0.605 c0.244,0.339,0.33,0.767,0.237,1.174c-0.093,0.406-0.357,0.753-0.723,0.952l-4.79,2.601c-0.083,0.045-0.134,0.134-0.131,0.229 l0.371,10.938l-0.089,6.727H56.604z"/><path fill="#472b29" d="M64.311,44.775L64.311,44.775c0.387,0,0.753,0.187,0.979,0.501c0.202,0.28,0.273,0.634,0.196,0.971 c-0.077,0.337-0.295,0.624-0.599,0.789l-4.79,2.6c-0.166,0.09-0.268,0.267-0.261,0.456l0.371,10.914L60.12,67.5h-3.261l0.24-13.58 c0.006-0.372-0.132-0.721-0.39-0.984c-0.259-0.264-0.618-0.415-0.986-0.415c-0.278,0-0.547,0.085-0.779,0.246l-5.069,3.514 c-0.206,0.143-0.447,0.219-0.695,0.219c-0.478,0-0.915-0.28-1.115-0.712c-0.148-0.321-0.152-0.676-0.012-1 c0.14-0.324,0.402-0.564,0.737-0.676l1.787-0.596c0.035-0.012,0.068-0.027,0.099-0.046l5.098-3.059 c0.141-0.085,0.232-0.233,0.242-0.398l0.077-1.227c0.045-0.712,0.638-1.27,1.352-1.27h0.564c0.263,0.036,0.578,0.122,0.655,0.325 c0.055,0.146,0.175,0.259,0.325,0.303c0.047,0.014,0.095,0.021,0.143,0.021c0.105,0,0.209-0.033,0.296-0.097l4.174-3.061 C63.808,44.856,64.054,44.775,64.311,44.775 M64.311,44.275c-0.35,0-0.702,0.107-1.006,0.33l-4.174,3.061 c-0.14-0.372-0.519-0.577-1.09-0.649h-0.597c-0.979,0-1.79,0.761-1.851,1.739l-0.077,1.227l-5.098,3.059l-1.787,0.596 c-0.975,0.325-1.452,1.426-1.021,2.359C47.905,56.638,48.533,57,49.179,57c0.337,0,0.678-0.099,0.98-0.308l5.069-3.514 c0.156-0.108,0.327-0.157,0.495-0.157c0.459,0,0.885,0.368,0.876,0.89L56.349,68h4.264l0.093-6.986l-0.371-10.938l4.79-2.6 c0.902-0.489,1.169-1.659,0.571-2.492v0C65.362,44.522,64.84,44.275,64.311,44.275L64.311,44.275z"/></g><g><path fill="#fdfcee" d="M67.75,65.25c-0.642,0-1.448-0.327-1.786-1.246l-3.17-8.621l-0.826-2.479 c-0.174-0.523-0.127-1.079,0.132-1.565s0.696-0.835,1.228-0.98c0.173-0.048,0.351-0.072,0.528-0.072 c0.982,0,1.827,0.734,1.966,1.708l0.475,3.325l0.351,2.151c0.064,0.395,0.389,0.67,0.791,0.67c0.321,0,0.6-0.184,0.729-0.479 c0.027-0.069,2.245-5.887,3.317-7.621c0.748-1.211,3.233-3.999,4.254-5.129l-0.082,5.206l-2.469,4.206l-1.775,4.106l-1.857,5.523 C69.235,64.909,68.413,65.25,67.75,65.25z"/><path fill="#472b29" d="M75.479,45.574l-0.07,4.472l-2.436,4.15c-0.01,0.018-0.02,0.036-0.028,0.055l-1.776,4.117 l-1.85,5.505C69.04,64.704,68.326,65,67.75,65c-0.557,0-1.257-0.285-1.551-1.083l-3.165-8.607l-0.829-2.486 c-0.152-0.457-0.111-0.943,0.116-1.369c0.227-0.425,0.608-0.73,1.073-0.857c0.152-0.042,0.308-0.063,0.463-0.063 c0.858,0,1.597,0.642,1.718,1.493l0.477,3.335l0.349,2.146c0.083,0.51,0.52,0.88,1.038,0.88c0.422,0,0.789-0.241,0.967-0.652 c0.022-0.058,2.232-5.853,3.292-7.568C72.343,49.126,74.314,46.875,75.479,45.574 M76,44.253c0,0-3.759,4.087-4.727,5.654 c-1.097,1.775-3.334,7.653-3.334,7.653c-0.098,0.224-0.299,0.33-0.499,0.33c-0.248,0-0.496-0.162-0.544-0.46l-0.349-2.146 l-0.475-3.325c-0.161-1.13-1.131-1.923-2.213-1.923c-0.196,0-0.396,0.026-0.595,0.081h0c-1.238,0.34-1.937,1.649-1.531,2.866 l0.829,2.486l3.17,8.621c0.347,0.943,1.184,1.411,2.02,1.411c0.858,0,1.715-0.492,2.043-1.468l1.85-5.505l1.761-4.078l2.503-4.264 L76,44.253L76,44.253z"/></g><g><path fill="#472b29" d="M38.5,65h-11c-0.276,0-0.5-0.224-0.5-0.5V47.488c0-0.276,0.224-0.5,0.5-0.5s0.5,0.224,0.5,0.5V64h10 V52.512c0-0.276,0.224-0.5,0.5-0.5s0.5,0.224,0.5,0.5V64.5C39,64.776,38.776,65,38.5,65z M47.5,59.286 c-0.106,0-0.213-0.034-0.304-0.104l-3.963-3.048c-0.219-0.169-0.26-0.482-0.092-0.701c0.168-0.219,0.482-0.26,0.701-0.092 l3.963,3.048c0.219,0.169,0.26,0.482,0.092,0.701C47.798,59.219,47.649,59.286,47.5,59.286z M41.158,54.409 c-0.106,0-0.213-0.034-0.304-0.104l-0.792-0.609c-0.219-0.168-0.26-0.482-0.092-0.701c0.168-0.22,0.482-0.26,0.701-0.092 l0.792,0.609c0.219,0.168,0.26,0.482,0.092,0.701C41.456,54.342,41.308,54.409,41.158,54.409z M68.5,49.895 c-0.276,0-0.5-0.224-0.5-0.5v-2.254c0-0.276,0.224-0.5,0.5-0.5s0.5,0.224,0.5,0.5v2.254C69,49.671,68.776,49.895,68.5,49.895z M48,46.892c-0.121,0-0.243-0.044-0.338-0.132L40.305,40h-3.793c-0.276,0-0.5-0.224-0.5-0.5s0.224-0.5,0.5-0.5H40.5 c0.125,0,0.246,0.047,0.338,0.132L48,45.713l7.162-6.581C55.254,39.047,55.375,39,55.5,39h13c0.276,0,0.5,0.224,0.5,0.5v2.641 c0,0.276-0.224,0.5-0.5,0.5s-0.5-0.224-0.5-0.5V40H55.695l-7.356,6.76C48.243,46.848,48.121,46.892,48,46.892z M27.5,42.988 c-0.276,0-0.5-0.224-0.5-0.5V39.5c0-0.276,0.224-0.5,0.5-0.5h2.012c0.276,0,0.5,0.224,0.5,0.5s-0.224,0.5-0.5,0.5H28v2.488 C28,42.765,27.776,42.988,27.5,42.988z M33.512,40h-1c-0.276,0-0.5-0.224-0.5-0.5s0.224-0.5,0.5-0.5h1c0.276,0,0.5,0.224,0.5,0.5 S33.788,40,33.512,40z"/></g><g><path fill="#472b29" d="M75.3,58.077c-0.387,0-0.7-0.313-0.7-0.7V39.224c0-0.387,0.313-0.7,0.7-0.7s0.7,0.313,0.7,0.7 v18.153C76,57.764,75.687,58.077,75.3,58.077z"/></g><g><path fill="#472b29" d="M64.806,68h-9.428c-0.387,0-0.7-0.313-0.7-0.7s0.313-0.7,0.7-0.7h9.428c0.387,0,0.7,0.313,0.7,0.7 S65.192,68,64.806,68z"/></g><g><path fill="#fdfcef" d="M29.5,74.5c0,0,1.567,0,3.5,0s3.5-1.567,3.5-3.5c0-1.781-1.335-3.234-3.055-3.455 C33.473,67.366,33.5,67.187,33.5,67c0-1.933-1.567-3.5-3.5-3.5c-1.032,0-1.95,0.455-2.59,1.165 c-0.384-1.808-1.987-3.165-3.91-3.165c-2.209,0-4,1.791-4,4c0,0.191,0.03,0.374,0.056,0.558C19.128,65.714,18.592,65.5,18,65.5 c-1.228,0-2.245,0.887-2.455,2.055C15.366,67.527,15.187,67.5,15,67.5c-1.933,0-3.5,1.567-3.5,3.5s1.567,3.5,3.5,3.5s7.5,0,7.5,0 V75h7V74.5z"/><path fill="#472b29" d="M31.25,70C31.112,70,31,69.888,31,69.75c0-1.223,0.995-2.218,2.218-2.218 c0.034,0.009,0.737-0.001,1.244,0.136c0.133,0.036,0.212,0.173,0.176,0.306c-0.036,0.134-0.173,0.213-0.306,0.176 c-0.444-0.12-1.1-0.12-1.113-0.118c-0.948,0-1.719,0.771-1.719,1.718C31.5,69.888,31.388,70,31.25,70z"/><circle cx="24.5" cy="74.5" r=".5" fill="#472b29"/><path fill="#472b29" d="M33,75h-3.5c-0.276,0-0.5-0.224-0.5-0.5s0.224-0.5,0.5-0.5H33c1.654,0,3-1.346,3-3 c0-1.496-1.125-2.768-2.618-2.959c-0.134-0.018-0.255-0.088-0.336-0.196s-0.115-0.244-0.094-0.377C32.975,67.314,33,67.16,33,67 c0-1.654-1.346-3-3-3c-0.85,0-1.638,0.355-2.219,1c-0.125,0.139-0.321,0.198-0.5,0.148c-0.182-0.049-0.321-0.195-0.36-0.379 C26.58,63.165,25.141,62,23.5,62c-1.93,0-3.5,1.57-3.5,3.5c0,0.143,0.021,0.28,0.041,0.418c0.029,0.203-0.063,0.438-0.242,0.54 c-0.179,0.102-0.396,0.118-0.556-0.01C18.878,66.155,18.449,66,18,66c-0.966,0-1.792,0.691-1.963,1.644 c-0.048,0.267-0.296,0.446-0.569,0.405C15.314,68.025,15.16,68,15,68c-1.654,0-3,1.346-3,3s1.346,3,3,3h7.5 c0.276,0,0.5,0.224,0.5,0.5S22.776,75,22.5,75H15c-2.206,0-4-1.794-4-4s1.794-4,4-4c0.059,0,0.116,0.002,0.174,0.006 C15.588,65.82,16.711,65,18,65c0.349,0,0.689,0.061,1.011,0.18C19.176,62.847,21.126,61,23.5,61c1.831,0,3.466,1.127,4.153,2.774 C28.333,63.276,29.155,63,30,63c2.206,0,4,1.794,4,4c0,0.048-0.001,0.095-0.004,0.142C35.739,67.59,37,69.169,37,71 C37,73.206,35.206,75,33,75z"/><path fill="#472b29" d="M27.5,74c-0.159,0-0.841,0-1,0c-0.276,0-0.5,0.224-0.5,0.5c0,0.276,0.224,0.5,0.5,0.5 c0.159,0,0.841,0,1,0c0.276,0,0.5-0.224,0.5-0.5C28,74.224,27.776,74,27.5,74z"/></g></svg>