<svg xmlns="http://www.w3.org/2000/svg"  viewBox="0 0 100 100" width="32px" height="32px"><path fill="#c7ede6" d="M87.215,56.71C88.35,54.555,89,52.105,89,49.5c0-6.621-4.159-12.257-10.001-14.478 C78.999,35.015,79,35.008,79,35c0-11.598-9.402-21-21-21c-9.784,0-17.981,6.701-20.313,15.757C36.211,29.272,34.638,29,33,29 c-7.692,0-14.023,5.793-14.89,13.252C12.906,43.353,9,47.969,9,53.5C9,59.851,14.149,65,20.5,65c0.177,0,0.352-0.012,0.526-0.022 C21.022,65.153,21,65.324,21,65.5C21,76.822,30.178,86,41.5,86c6.437,0,12.175-2.972,15.934-7.614C59.612,80.611,62.64,82,66,82 c4.65,0,8.674-2.65,10.666-6.518C77.718,75.817,78.837,76,80,76c6.075,0,11-4.925,11-11C91,61.689,89.53,58.727,87.215,56.71z"/><path fill="#fff" d="M15.405,51H5.5C5.224,51,5,50.776,5,50.5S5.224,50,5.5,50h9.905c0.276,0,0.5,0.224,0.5,0.5 S15.682,51,15.405,51z"/><path fill="#fff" d="M18.5,51h-1c-0.276,0-0.5-0.224-0.5-0.5s0.224-0.5,0.5-0.5h1c0.276,0,0.5,0.224,0.5,0.5 S18.777,51,18.5,51z"/><path fill="#fff" d="M23.491,53H14.5c-0.276,0-0.5-0.224-0.5-0.5s0.224-0.5,0.5-0.5h8.991c0.276,0,0.5,0.224,0.5,0.5 S23.767,53,23.491,53z"/><path fill="#fff" d="M12.5,53h-1c-0.276,0-0.5-0.224-0.5-0.5s0.224-0.5,0.5-0.5h1c0.276,0,0.5,0.224,0.5,0.5 S12.777,53,12.5,53z"/><path fill="#fff" d="M9.5,53h-2C7.224,53,7,52.776,7,52.5S7.224,52,7.5,52h2c0.276,0,0.5,0.224,0.5,0.5S9.777,53,9.5,53 z"/><path fill="#fff" d="M15.5,55h-2c-0.276,0-0.5-0.224-0.5-0.5s0.224-0.5,0.5-0.5h2c0.276,0,0.5,0.224,0.5,0.5 S15.776,55,15.5,55z"/><path fill="#fff" d="M18.5,46c-0.177,0-0.823,0-1,0c-0.276,0-0.5,0.224-0.5,0.5c0,0.276,0.224,0.5,0.5,0.5 c0.177,0,0.823,0,1,0c0.276,0,0.5-0.224,0.5-0.5C19,46.224,18.776,46,18.5,46z"/><path fill="#fff" d="M18.5,48c-0.177,0-4.823,0-5,0c-0.276,0-0.5,0.224-0.5,0.5c0,0.276,0.224,0.5,0.5,0.5 c0.177,0,4.823,0,5,0c0.276,0,0.5-0.224,0.5-0.5C19,48.224,18.776,48,18.5,48z"/><path fill="#fff" d="M23.5,50c-0.177,0-2.823,0-3,0c-0.276,0-0.5,0.224-0.5,0.5c0,0.276,0.224,0.5,0.5,0.5 c0.177,0,2.823,0,3,0c0.276,0,0.5-0.224,0.5-0.5C24,50.224,23.776,50,23.5,50z"/><path fill="#fff" d="M71.5,26h-10c-0.276,0-0.5-0.224-0.5-0.5s0.224-0.5,0.5-0.5h10c0.276,0,0.5,0.224,0.5,0.5 S71.776,26,71.5,26z"/><path fill="#fff" d="M75.5,26h-2c-0.276,0-0.5-0.224-0.5-0.5s0.224-0.5,0.5-0.5h2c0.276,0,0.5,0.224,0.5,0.5 S75.776,26,75.5,26z"/><path fill="#fff" d="M80.5,28h-10c-0.276,0-0.5-0.224-0.5-0.5s0.224-0.5,0.5-0.5h10c0.276,0,0.5,0.224,0.5,0.5 S80.777,28,80.5,28z"/><path fill="#fff" d="M68.5,28h-1c-0.276,0-0.5-0.224-0.5-0.5s0.224-0.5,0.5-0.5h1c0.276,0,0.5,0.224,0.5,0.5 S68.776,28,68.5,28z"/><path fill="#fff" d="M65.375,28H63.5c-0.276,0-0.5-0.224-0.5-0.5s0.224-0.5,0.5-0.5h1.875c0.276,0,0.5,0.224,0.5,0.5 S65.651,28,65.375,28z"/><path fill="#fff" d="M74.5,24h-5c-0.276,0-0.5-0.224-0.5-0.5s0.224-0.5,0.5-0.5h5c0.276,0,0.5,0.224,0.5,0.5 S74.777,24,74.5,24z"/><path fill="#fff" d="M71.5,30h-2c-0.276,0-0.5-0.224-0.5-0.5s0.224-0.5,0.5-0.5h2c0.276,0,0.5,0.224,0.5,0.5 S71.776,30,71.5,30z"/><g><path fill="#fdfcef" d="M30.815,77.5c0,0,11.691,0,11.762,0c2.7,0,4.888-2.189,4.888-4.889 c0-2.355-1.666-4.321-3.884-4.784c0.026-0.206,0.043-0.415,0.043-0.628c0-2.796-2.267-5.063-5.063-5.063 c-1.651,0-3.113,0.794-4.037,2.017c-0.236-3.113-3.017-5.514-6.27-5.116c-2.379,0.291-4.346,2.13-4.784,4.486 c-0.14,0.756-0.126,1.489,0.014,2.177c-0.638-0.687-1.546-1.119-2.557-1.119c-1.85,0-3.361,1.441-3.48,3.261 c-0.84-0.186-1.754-0.174-2.717,0.188c-1.84,0.691-3.15,2.423-3.227,4.387c-0.109,2.789,2.12,5.085,4.885,5.085 c0.21,0,0.948,0,1.118,0h10.151"/><path fill="#472b29" d="M42.576,78H30.815c-0.276,0-0.5-0.224-0.5-0.5s0.224-0.5,0.5-0.5h11.762 c2.42,0,4.389-1.969,4.389-4.389c0-2.067-1.466-3.873-3.486-4.295c-0.254-0.053-0.426-0.292-0.394-0.55 c0.022-0.186,0.039-0.375,0.039-0.567c0-2.516-2.047-4.563-4.563-4.563c-1.438,0-2.765,0.663-3.638,1.818 c-0.125,0.166-0.342,0.237-0.539,0.179c-0.2-0.059-0.342-0.235-0.358-0.442c-0.104-1.377-0.778-2.671-1.85-3.549 c-1.084-0.887-2.452-1.279-3.861-1.109c-2.165,0.265-3.955,1.943-4.353,4.081c-0.124,0.667-0.12,1.335,0.013,1.986 c0.044,0.22-0.062,0.442-0.262,0.544c-0.197,0.102-0.442,0.061-0.595-0.104c-0.574-0.619-1.353-0.959-2.19-0.959 c-1.568,0-2.878,1.227-2.98,2.793c-0.01,0.146-0.082,0.28-0.199,0.367c-0.116,0.087-0.268,0.119-0.407,0.088 c-0.844-0.186-1.64-0.131-2.434,0.167c-1.669,0.626-2.836,2.209-2.903,3.938c-0.047,1.207,0.387,2.35,1.222,3.218 C14.061,76.522,15.185,77,16.389,77h11.27c0.276,0,0.5,0.224,0.5,0.5s-0.224,0.5-0.5,0.5h-11.27c-1.479,0-2.858-0.587-3.884-1.653 s-1.559-2.469-1.501-3.951c0.084-2.126,1.511-4.069,3.552-4.836c0.8-0.3,1.628-0.4,2.468-0.298 c0.377-1.823,1.996-3.182,3.904-3.182c0.685,0,1.354,0.179,1.944,0.51c-0.001-0.386,0.035-0.773,0.107-1.159 c0.476-2.562,2.619-4.573,5.214-4.891c1.688-0.206,3.321,0.267,4.616,1.328c1.004,0.823,1.716,1.951,2.038,3.193 c1.012-0.916,2.318-1.425,3.713-1.425c3.067,0,5.563,2.496,5.563,5.563c0,0.083-0.002,0.166-0.007,0.249 c2.254,0.672,3.848,2.777,3.848,5.164C47.965,75.583,45.548,78,42.576,78z"/><path fill="#fdfcef" d="M27.982,66.731c-1.808-0.119-3.365,1.13-3.476,2.789c-0.014,0.206-0.005,0.409,0.025,0.606 c-0.349-0.394-0.865-0.661-1.458-0.7c-1.085-0.071-2.022,0.645-2.158,1.62c-0.197-0.054-0.403-0.09-0.616-0.104 c-1.582-0.104-2.944,0.989-3.042,2.441"/><path fill="#472b29" d="M17.257,73.632c-0.006,0-0.011,0-0.017,0c-0.138-0.009-0.242-0.128-0.232-0.266 c0.106-1.586,1.563-2.783,3.308-2.674c0.135,0.009,0.271,0.027,0.408,0.053c0.272-0.967,1.255-1.639,2.365-1.568 c0.426,0.028,0.824,0.161,1.163,0.382c0.001-0.019,0.002-0.037,0.004-0.055c0.12-1.794,1.8-3.146,3.742-3.022 c0.138,0.009,0.242,0.128,0.232,0.266c-0.008,0.137-0.106,0.245-0.266,0.233c-1.658-0.104-3.108,1.038-3.211,2.557 c-0.012,0.186-0.004,0.372,0.023,0.551c0.017,0.11-0.041,0.217-0.141,0.265c-0.102,0.046-0.221,0.022-0.294-0.061 c-0.317-0.358-0.786-0.583-1.287-0.616c-0.959-0.064-1.774,0.555-1.893,1.405c-0.011,0.071-0.051,0.134-0.11,0.174 s-0.135,0.052-0.203,0.033c-0.189-0.051-0.38-0.084-0.567-0.096c-1.452-0.099-2.687,0.896-2.776,2.208 C17.497,73.531,17.388,73.632,17.257,73.632z"/><g><path fill="#fdfcef" d="M44.556,68.4c-1.699-0.801-3.664-0.234-4.389,1.267c-0.09,0.186-0.157,0.379-0.201,0.574"/><path fill="#472b29" d="M39.966,70.49c-0.019,0-0.037-0.002-0.057-0.006c-0.134-0.031-0.218-0.166-0.187-0.3 c0.05-0.216,0.123-0.427,0.219-0.625c0.783-1.622,2.9-2.243,4.721-1.384c0.125,0.059,0.179,0.208,0.12,0.333 c-0.06,0.125-0.21,0.177-0.333,0.12c-1.575-0.743-3.394-0.226-4.057,1.149c-0.08,0.165-0.142,0.34-0.184,0.521 C40.183,70.412,40.08,70.49,39.966,70.49z"/></g></g><path fill="#bf1734" d="M71,36.81c-0.05-2.31-1.23-4.34-3-5.58c-0.6-0.42-1.28-0.74-2-0.95c-0.27-0.08-0.54-0.14-0.81-0.18	c-0.38-0.08-0.78-0.11-1.18-0.11H35.99c-0.34,0-0.67,0.02-0.99,0.08c-1.1,0.14-2.13,0.56-3,1.16c-1.77,1.24-2.95,3.27-3,5.58	c-0.01,0.06-0.01,0.12-0.01,0.18v28.02c0,0.06,0,0.12,0.01,0.18c0.05,2.31,1.23,4.34,3,5.58c0.87,0.6,1.9,1.02,3,1.16	c0.32,0.06,0.65,0.08,0.99,0.08h28.02c0.17,0,0.34-0.01,0.51-0.02c0.51-0.04,1.01-0.13,1.48-0.27c0.72-0.21,1.4-0.54,2-0.95	c1.77-1.24,2.95-3.27,3-5.58c0.01-0.06,0.01-0.12,0.01-0.18V36.99C71.01,36.93,71.01,36.87,71,36.81z"/><g><path fill="#961b30" d="M32,31.23v39.54c-1.77-1.24-2.95-3.27-3-5.58V36.81C29.05,34.5,30.23,32.47,32,31.23z"/><rect width="2" height="42.02" x="41" y="29.99" fill="#961b30"/><rect width="2" height="42.02" x="46" y="29.99" fill="#961b30"/><rect width="2" height="42.02" x="59" y="29.99" fill="#961b30"/><path fill="#961b30" d="M66,30.28v41.34c-0.47,0.2-0.97,0.32-1.48,0.37c-0.17,0.01-0.34,0.02-0.51,0.02H63V29.99h1.01 c0.4,0,0.8,0.03,1.18,0.11C65.46,30.14,65.73,30.2,66,30.28z"/><path fill="#961b30" d="M39,29.99v42.02h-3.01c-0.34,0-0.67-0.02-0.99-0.08V30.07c0.32-0.06,0.65-0.08,0.99-0.08H39z"/><path fill="#961b30" d="M71,36.81v28.38c-0.05,2.31-1.23,4.34-3,5.58V31.23C69.77,32.47,70.95,34.5,71,36.81z"/><rect width="7" height="42.02" x="50" y="29.99" fill="#961b30"/></g><path fill="#472b29" d="M64,30.4c3.639,0,6.6,2.961,6.6,6.6v28c0,3.639-2.961,6.6-6.6,6.6H36c-3.639,0-6.6-2.961-6.6-6.6V37	c0-3.639,2.961-6.6,6.6-6.6H64 M64,29H36c-4.418,0-8,3.582-8,8v28c0,4.418,3.582,8,8,8h28c4.418,0,8-3.582,8-8V37	C72,32.582,68.418,29,64,29L64,29z"/><g><path fill="#fdfcef" d="M80.248,76.5c1.883,0,3.517,0,3.54,0c2.11,0,3.821-1.674,3.821-3.739 c0-1.802-1.302-3.305-3.035-3.66c0.02-0.158,0.034-0.317,0.034-0.48c0-2.139-1.772-3.873-3.957-3.873 c-1.29,0-2.433,0.607-3.155,1.543c-0.185-2.381-2.358-4.218-4.9-3.913c-1.859,0.223-3.397,1.629-3.739,3.431 c-0.11,0.578-0.098,1.139,0.011,1.665c-0.498-0.525-1.208-0.856-1.998-0.856c-1.446,0-2.627,1.102-2.72,2.494 c-0.657-0.142-1.371-0.133-2.123,0.143c-1.438,0.528-2.462,1.853-2.522,3.356c-0.085,2.133,1.657,3.889,3.818,3.889 c0.164,0,0.741,0,0.874,0h7.934 M73.77,76.5h0.36"/><path fill="#472b29" d="M83.787,77h-3.54c-0.276,0-0.5-0.224-0.5-0.5s0.224-0.5,0.5-0.5h3.54 c1.831,0,3.321-1.453,3.321-3.239c0-1.524-1.108-2.857-2.637-3.17c-0.257-0.052-0.429-0.294-0.396-0.554 c0.018-0.137,0.03-0.275,0.03-0.416c0-1.86-1.551-3.373-3.457-3.373c-1.093,0-2.099,0.491-2.76,1.348 c-0.125,0.165-0.343,0.232-0.538,0.174c-0.198-0.059-0.34-0.234-0.355-0.44c-0.079-1.019-0.565-1.943-1.37-2.603 c-0.828-0.68-1.886-0.984-2.973-0.853c-1.646,0.197-3.006,1.442-3.307,3.028c-0.094,0.494-0.091,0.988,0.009,1.471 c0.046,0.219-0.06,0.441-0.258,0.544c-0.196,0.104-0.439,0.064-0.595-0.099c-0.428-0.451-1.008-0.7-1.635-0.7 c-1.17,0-2.146,0.891-2.221,2.027c-0.01,0.145-0.082,0.279-0.198,0.366c-0.115,0.088-0.263,0.12-0.406,0.089 c-0.639-0.139-1.241-0.097-1.847,0.124c-1.262,0.464-2.144,1.632-2.193,2.906c-0.035,0.875,0.282,1.708,0.895,2.345 C61.533,75.636,62.393,76,63.321,76h8.808c0.276,0,0.5,0.224,0.5,0.5s-0.224,0.5-0.5,0.5h-8.808 c-1.185,0-2.331-0.485-3.144-1.332c-0.803-0.835-1.219-1.928-1.174-3.078c0.066-1.674,1.212-3.203,2.849-3.805 c0.612-0.225,1.245-0.307,1.881-0.245c0.345-1.396,1.629-2.424,3.136-2.424c0.493,0,0.977,0.113,1.413,0.323 c0.01-0.242,0.037-0.484,0.083-0.726c0.381-2.009,2.096-3.585,4.17-3.834c1.364-0.16,2.686,0.218,3.727,1.073 c0.747,0.613,1.278,1.409,1.546,2.301c0.791-0.648,1.785-1.006,2.843-1.006c2.458,0,4.457,1.961,4.457,4.373 c0,0.034-0.001,0.068-0.002,0.103c1.765,0.555,3.004,2.188,3.004,4.038C88.109,75.098,86.17,77,83.787,77z M74.129,77H73.77 c-0.276,0-0.5-0.224-0.5-0.5s0.224-0.5,0.5-0.5h0.359c0.276,0,0.5,0.224,0.5,0.5S74.406,77,74.129,77z"/><path fill="#472b29" d="M82.08,71.197c-0.018,0-0.036-0.002-0.055-0.006c-0.135-0.03-0.22-0.164-0.189-0.299 c0.038-0.167,0.095-0.329,0.17-0.479c0.604-1.223,2.273-1.673,3.721-1.006c0.126,0.058,0.181,0.207,0.122,0.332 c-0.057,0.125-0.209,0.179-0.331,0.122c-1.204-0.556-2.579-0.21-3.063,0.774c-0.058,0.115-0.102,0.238-0.13,0.367 C82.298,71.118,82.195,71.197,82.08,71.197z"/><g><path fill="#472b29" d="M76.921,77h-1.107c-0.276,0-0.5-0.224-0.5-0.5s0.224-0.5,0.5-0.5h1.107c0.276,0,0.5,0.224,0.5,0.5 S77.198,77,76.921,77z"/></g></g><g><path fill="#fdfcef" d="M44.264,60.066c0.37,0.062,0.802-0.245,0.987-0.214c0.185,0.031,0.154,0.216,0.523,0.279 s0.034-1.325-0.396-2.159c-0.43-0.833,0.747-3.297-0.053-4.192C45.2,54.52,44.264,60.066,44.264,60.066z"/><path fill="#472b29" d="M45.797,60.258c-0.014,0-0.029-0.001-0.044-0.004c-0.255-0.043-0.355-0.142-0.428-0.214 c-0.044-0.044-0.06-0.058-0.095-0.063c-0.039-0.01-0.168,0.041-0.271,0.079c-0.208,0.079-0.468,0.177-0.717,0.134 c-0.068-0.011-0.114-0.076-0.102-0.144l1.062-6.286c0.008-0.047,0.042-0.086,0.088-0.099c0.047-0.014,0.096,0,0.128,0.037 c0.491,0.549,0.312,1.561,0.141,2.539c-0.123,0.696-0.238,1.353-0.07,1.68c0.352,0.682,0.728,1.927,0.494,2.247 C45.938,60.225,45.871,60.258,45.797,60.258z M45.222,59.726c0.017,0,0.033,0.001,0.05,0.004c0.116,0.019,0.179,0.082,0.23,0.132 c0.06,0.06,0.116,0.116,0.293,0.146c0.101-0.124-0.114-1.176-0.528-1.979c-0.207-0.401-0.084-1.099,0.046-1.837 c0.128-0.729,0.271-1.54,0.079-2.056l-0.981,5.812c0.151-0.01,0.313-0.072,0.461-0.127 C45.009,59.769,45.123,59.726,45.222,59.726z"/><path fill="#fdfcef" d="M44.17,60.621c0.74,0.125,2.02,0.871,2.461,2.317c0.122,0.401-1.354-0.989-2.648-1.208 C44.107,60.991,44.17,60.621,44.17,60.621z"/><path fill="#472b29" d="M46.608,63.137c-0.111,0-0.276-0.105-0.606-0.317c-0.524-0.336-1.315-0.843-2.041-0.966 c-0.033-0.005-0.062-0.023-0.081-0.051c-0.019-0.027-0.027-0.061-0.021-0.093l0.188-1.109c0.012-0.068,0.07-0.116,0.144-0.102 c0.744,0.125,2.097,0.89,2.56,2.404c0.036,0.118-0.015,0.177-0.047,0.202C46.674,63.126,46.644,63.137,46.608,63.137z M44.126,61.631c0.738,0.162,1.499,0.649,2.011,0.978c0.109,0.07,0.226,0.145,0.318,0.199c-0.448-1.221-1.512-1.872-2.183-2.038 L44.126,61.631z"/><path fill="#fdfcef" d="M46.062,55.046c0.062-0.37,0.864-0.615,1.604-0.49c1.294,0.219,2.864,1.054,2.802,1.424 s-1.758,0.274-2.497,0.149C47.232,56.004,45.937,55.785,46.062,55.046z"/><path fill="#472b29" d="M49.385,56.366c-0.526,0-1.092-0.056-1.435-0.114c-0.376-0.063-0.892-0.15-1.305-0.318 c-0.534-0.217-0.771-0.523-0.706-0.909c0.082-0.486,1.006-0.72,1.748-0.592c0.609,0.103,1.336,0.352,1.946,0.667 c0.466,0.241,1.01,0.592,0.958,0.9c-0.04,0.239-0.395,0.355-1.116,0.364C49.445,56.366,49.415,56.366,49.385,56.366z M47.268,54.648c-0.558,0-1.044,0.198-1.082,0.418c-0.016,0.095-0.064,0.384,0.554,0.635c0.388,0.157,0.887,0.242,1.252,0.304 c1.059,0.178,2.307,0.125,2.353-0.047c0.034-0.206-1.307-1.044-2.7-1.28C47.519,54.658,47.392,54.648,47.268,54.648z"/><g><path fill="#fdfcef" d="M46.887,44.536c-3.513-0.593-7.77,0.969-8.644,6.146c-1.749,10.353,5.022,15.3,5.022,15.3 l0.718-4.252c-1.294-0.219-3.145,0.61-2.898,0.271c0.892-1.221,2.346-1.505,3.085-1.38l0.094-0.555 c-0.37-0.062-0.677-0.495-0.862-0.526c-0.185-0.031-0.216,0.154-0.586,0.091c-0.37-0.062,0.403-1.263,1.083-1.909 s0.377-3.359,1.427-3.942L46.887,44.536z M42.055,55.13c-0.74-0.125-2.372-0.591-2.31-0.961c0.062-0.37,1.82-0.643,3.114-0.425 c0.74,0.125,1.417,0.62,1.354,0.989C44.089,55.473,42.794,55.255,42.055,55.13z M44.62,53.899 c-0.032,0.036-0.085,0.042-0.124,0.015l-1.863-1.295l-2.79-0.051c-0.052-0.001-0.093-0.044-0.092-0.096 c0.001-0.049,0.039-0.088,0.086-0.092l2.863-0.225c0.056-0.005,0.111,0.016,0.151,0.05l1.76,1.562 C44.651,53.801,44.655,53.861,44.62,53.899z"/><path fill="#472b29" d="M43.264,66.107c-0.026,0-0.052-0.008-0.074-0.024c-0.068-0.05-6.813-5.112-5.071-15.422 c0.405-2.398,1.578-4.239,3.392-5.323c1.545-0.924,3.461-1.253,5.396-0.925c0.068,0.011,0.114,0.076,0.102,0.144l-1.562,9.244 c-0.006,0.037-0.029,0.07-0.062,0.088c-0.538,0.299-0.699,1.294-0.841,2.173c-0.12,0.741-0.232,1.44-0.56,1.751 c-0.655,0.622-1.203,1.544-1.137,1.707c0.166,0.017,0.238-0.017,0.314-0.053c0.065-0.031,0.144-0.07,0.261-0.05 c0.11,0.019,0.215,0.106,0.348,0.217c0.155,0.13,0.331,0.277,0.514,0.309c0.068,0.011,0.114,0.076,0.102,0.144l-0.094,0.555 c-0.012,0.068-0.071,0.115-0.144,0.102c-0.652-0.107-1.983,0.123-2.856,1.192c0.105-0.021,0.241-0.053,0.367-0.083 c0.625-0.15,1.569-0.377,2.344-0.245c0.068,0.011,0.114,0.076,0.102,0.144l-0.718,4.252c-0.007,0.042-0.036,0.079-0.076,0.095 C43.296,66.104,43.28,66.107,43.264,66.107z M45.482,44.544c-1.387,0-2.737,0.348-3.843,1.009 c-1.749,1.045-2.881,2.826-3.274,5.15c-1.562,9.253,3.798,14.207,4.811,15.049l0.662-3.916c-0.703-0.079-1.549,0.122-2.12,0.259 c-0.504,0.122-0.674,0.162-0.756,0.039c-0.023-0.035-0.051-0.107,0.021-0.207c0.885-1.212,2.304-1.526,3.083-1.446l0.055-0.323 c-0.198-0.069-0.37-0.212-0.512-0.332c-0.083-0.069-0.186-0.156-0.229-0.163c-0.033-0.005-0.054,0.001-0.111,0.029 c-0.093,0.044-0.22,0.107-0.475,0.062c-0.092-0.015-0.16-0.075-0.187-0.162c-0.116-0.38,0.648-1.432,1.205-1.96 c0.266-0.253,0.373-0.912,0.485-1.609c0.154-0.953,0.313-1.937,0.913-2.32l1.531-9.062 C46.323,44.576,45.901,44.544,45.482,44.544z M43.22,55.384c-0.407,0-0.851-0.075-1.185-0.132l0,0 c-0.362-0.061-0.959-0.206-1.478-0.394c-0.678-0.245-0.975-0.471-0.935-0.71c0.091-0.54,2.097-0.725,3.258-0.527 c0.371,0.062,0.747,0.217,1.031,0.425c0.313,0.229,0.464,0.48,0.425,0.708c-0.065,0.386-0.39,0.597-0.965,0.626 C43.322,55.383,43.271,55.384,43.22,55.384z M41.854,53.79c-1.05,0-1.959,0.243-1.986,0.4c-0.01,0.193,1.228,0.651,2.208,0.816 c0,0,0,0,0,0c0.364,0.062,0.864,0.149,1.282,0.125c0.667-0.034,0.716-0.323,0.732-0.418c0.021-0.125-0.104-0.302-0.327-0.465 c-0.254-0.186-0.591-0.324-0.925-0.381C42.512,53.812,42.176,53.79,41.854,53.79z M44.55,54.056 c-0.043,0-0.087-0.013-0.125-0.039l-1.832-1.273l-2.752-0.051c-0.121-0.002-0.217-0.102-0.215-0.223 c0.002-0.113,0.089-0.205,0.201-0.214l2.863-0.226c0.09-0.009,0.175,0.022,0.242,0.08l1.762,1.563 c0.089,0.081,0.098,0.219,0.019,0.309c0,0-0.001,0.001-0.001,0.001C44.67,54.031,44.61,54.056,44.55,54.056z M44.621,53.899 h0.003H44.621z M40.492,52.454l2.145,0.04c0.024,0,0.049,0.008,0.069,0.022l1.433,0.996l-1.369-1.214 c-0.015-0.013-0.042-0.02-0.057-0.019L40.492,52.454z"/></g><g><path fill="#fdfcef" d="M46.003,54.002l2.176-0.897c0.049-0.019,0.108-0.021,0.159,0.003l2.63,1.153 c0.044,0.019,0.067,0.069,0.051,0.115c-0.016,0.049-0.069,0.076-0.118,0.06l-2.652-0.868l-2.185,0.612 c-0.045,0.013-0.094-0.01-0.112-0.055C45.932,54.076,45.955,54.021,46.003,54.002z"/><path fill="#472b29" d="M50.93,54.565c-0.022,0-0.045-0.004-0.068-0.011l-2.615-0.856l-2.148,0.602 c-0.107,0.027-0.219-0.025-0.261-0.127c-0.046-0.112,0.007-0.24,0.118-0.286c0,0,0,0,0,0l2.176-0.897 c0.085-0.034,0.178-0.033,0.258,0.004l2.628,1.152c0.104,0.046,0.155,0.161,0.12,0.268C51.108,54.506,51.022,54.565,50.93,54.565 z M48.249,53.442c0.013,0,0.026,0.002,0.039,0.006l2.042,0.668l-2.043-0.896c-0.019-0.009-0.042-0.009-0.062,0l-1.688,0.696 l1.679-0.47C48.227,53.444,48.238,53.442,48.249,53.442z M46.051,54.117L46.051,54.117L46.051,54.117z"/></g><g><path fill="#fdfcef" d="M56.556,52.785c0.373-0.035,0.711-0.444,0.898-0.462c0.187-0.018,0.204,0.169,0.578,0.134 c0.373-0.035-0.311-1.289-0.941-1.982c-0.631-0.694-0.132-3.378-1.136-4.036C56.025,47.185,56.556,52.785,56.556,52.785z"/><path fill="#472b29" d="M56.556,52.91c-0.029,0-0.057-0.01-0.08-0.029c-0.025-0.021-0.042-0.051-0.045-0.084L55.83,46.45 c-0.004-0.048,0.019-0.094,0.06-0.119c0.042-0.024,0.094-0.023,0.133,0.002c0.616,0.404,0.706,1.426,0.793,2.415 c0.062,0.704,0.12,1.37,0.367,1.642c0.517,0.568,1.202,1.672,1.059,2.042c-0.033,0.085-0.105,0.14-0.198,0.148 c-0.257,0.023-0.38-0.045-0.469-0.097c-0.055-0.031-0.075-0.042-0.109-0.037c-0.043,0.004-0.152,0.083-0.24,0.146 c-0.181,0.13-0.405,0.292-0.658,0.316C56.564,52.91,56.56,52.91,56.556,52.91z M56.111,46.765l0.556,5.868 c0.143-0.049,0.284-0.15,0.412-0.243c0.141-0.101,0.251-0.181,0.363-0.192c0.118-0.011,0.195,0.033,0.256,0.069 c0.073,0.042,0.14,0.082,0.321,0.064c0.065-0.146-0.414-1.105-1.021-1.774c-0.304-0.334-0.366-1.04-0.432-1.788 C56.502,48.033,56.43,47.214,56.111,46.765z"/><path fill="#fdfcef" d="M56.804,55.398c0.747-0.071,2.771-1.353,3.316-2.763c0.151-0.391-1.423,0.888-3.476,1.083 C56.716,54.465,56.804,55.398,56.804,55.398z"/><path fill="#472b29" d="M56.804,55.523c-0.029,0-0.057-0.01-0.08-0.029c-0.025-0.021-0.042-0.051-0.045-0.084l-0.159-1.68 c-0.003-0.033,0.007-0.066,0.028-0.091c0.021-0.025,0.051-0.042,0.084-0.045c1.241-0.117,2.288-0.631,2.913-0.938 c0.418-0.205,0.559-0.272,0.66-0.178c0.03,0.027,0.074,0.09,0.031,0.203c-0.554,1.431-2.607,2.765-3.421,2.842 C56.812,55.523,56.808,55.523,56.804,55.523z M56.781,53.829l0.135,1.423c0.724-0.172,2.435-1.25,3.021-2.506 c-0.081,0.037-0.182,0.086-0.281,0.135C59.077,53.165,58.015,53.686,56.781,53.829z"/><path fill="#fdfcef" d="M56.666,46.476l1.869-1.43c0.042-0.031,0.099-0.048,0.154-0.039l2.839,0.433 c0.047,0.007,0.082,0.049,0.08,0.098c-0.003,0.052-0.047,0.091-0.099,0.089l-2.786-0.152l-1.952,1.156 c-0.04,0.024-0.093,0.014-0.122-0.024C56.617,46.567,56.625,46.508,56.666,46.476z"/><path fill="#472b29" d="M56.724,46.77c-0.066,0-0.132-0.03-0.174-0.087c-0.035-0.045-0.051-0.103-0.043-0.161 c0.007-0.058,0.037-0.109,0.083-0.145c0,0,0,0,0,0l1.87-1.43c0.073-0.055,0.162-0.076,0.25-0.063l2.837,0.433 c0.112,0.018,0.192,0.116,0.186,0.229c-0.003,0.057-0.028,0.111-0.072,0.15c-0.044,0.04-0.107,0.052-0.159,0.056l-2.748-0.15 l-1.919,1.137C56.8,46.76,56.762,46.77,56.724,46.77z M58.659,45.13c-0.017,0-0.034,0.006-0.048,0.016l-1.453,1.111l1.502-0.89 c0.021-0.013,0.046-0.019,0.07-0.018l2.144,0.117l-2.203-0.336C58.667,45.131,58.663,45.13,58.659,45.13z M61.516,45.502 L61.516,45.502L61.516,45.502L61.516,45.502z"/><g><path fill="#fdfcef" d="M57.047,48.03c-0.035-0.373,1.2-1.244,3.067-1.421s1.36,0.436-0.267,1.155 S57.1,48.59,57.047,48.03z"/><path fill="#472b29" d="M57.658,48.51c-0.211,0-0.38-0.035-0.502-0.106c-0.137-0.081-0.218-0.206-0.232-0.362l0,0 c-0.024-0.259,0.307-0.598,0.886-0.906c0.639-0.34,1.453-0.571,2.294-0.651c0.852-0.081,1.258-0.007,1.321,0.237 c0.028,0.107,0.113,0.433-1.526,1.157C58.958,48.294,58.181,48.51,57.658,48.51z M60.678,46.703c-0.142,0-0.322,0.008-0.552,0.03 c-1.091,0.103-1.847,0.434-2.2,0.623c-0.582,0.31-0.762,0.584-0.754,0.662l0,0c0.007,0.076,0.042,0.13,0.11,0.17 c0.269,0.157,1.071,0.099,2.515-0.538c1.134-0.501,1.386-0.802,1.385-0.868l0,0C61.18,46.782,61.117,46.703,60.678,46.703z"/></g><g><path fill="#fdfcef" d="M55.07,37.105c-3.547,0.336-7.254,2.948-6.759,8.174c0.991,10.453,8.812,13.478,8.812,13.478 l-0.301-3.173l-0.018-0.187c-0.747,0.071-2.976-0.808-3.777-2.09c-0.222-0.356,1.564,0.605,3.617,0.41l-0.035-0.373l-0.035-0.373 l-0.018-0.187c-0.373,0.035-0.782-0.303-0.969-0.285c-0.187,0.018-0.169,0.204-0.542,0.24s0.063-1.324,0.552-2.124 c0.489-0.8-0.505-3.342,0.357-4.177L55.07,37.105z M52.381,48.472c-1.733-0.401-2.346-0.908-0.48-1.085 c1.867-0.177,3.244,0.446,3.279,0.819C55.234,48.767,54.114,48.873,52.381,48.472z M55.305,46.735 c-0.022,0.043-0.072,0.062-0.116,0.046l-2.135-0.769l-2.708,0.673c-0.05,0.012-0.101-0.018-0.114-0.068 c-0.012-0.047,0.015-0.095,0.06-0.111l2.707-0.959c0.053-0.019,0.112-0.014,0.159,0.009l2.105,1.053 C55.309,46.633,55.328,46.689,55.305,46.735z"/><path fill="#472b29" d="M57.123,58.883c-0.015,0-0.03-0.003-0.045-0.008c-0.079-0.031-7.904-3.174-8.891-13.583 c-0.495-5.215,3.215-7.964,6.871-8.311c0.036-0.001,0.066,0.008,0.091,0.028c0.025,0.021,0.042,0.051,0.045,0.084l0.885,9.333 c0.003,0.038-0.01,0.075-0.038,0.102c-0.442,0.428-0.34,1.432-0.25,2.316c0.076,0.747,0.148,1.451-0.088,1.837 c-0.471,0.77-0.762,1.803-0.657,1.943c0.166-0.026,0.226-0.078,0.29-0.133c0.054-0.046,0.122-0.104,0.239-0.116 c0.105-0.014,0.236,0.047,0.394,0.121c0.183,0.085,0.387,0.185,0.575,0.164c0.069-0.013,0.129,0.044,0.136,0.112l0.089,0.934 c0.003,0.033-0.007,0.066-0.028,0.091c-0.021,0.025-0.051,0.042-0.084,0.045c-1.287,0.122-2.484-0.206-3.127-0.381 c-0.106-0.029-0.214-0.058-0.3-0.079c0.869,1.196,2.924,1.958,3.563,1.892c0.035-0.002,0.066,0.007,0.091,0.028 c0.026,0.021,0.042,0.051,0.045,0.084l0.318,3.36c0.004,0.043-0.015,0.085-0.049,0.111 C57.176,58.874,57.149,58.883,57.123,58.883z M54.957,37.242c-3.608,0.394-6.997,3.011-6.521,8.025 c0.886,9.349,7.347,12.741,8.542,13.291l-0.287-3.032c-0.901-0.016-2.996-0.914-3.77-2.153c-0.064-0.102-0.033-0.172-0.008-0.205 c0.083-0.112,0.233-0.072,0.682,0.051c0.607,0.166,1.716,0.473,2.914,0.383l-0.066-0.693c-0.209-0.015-0.411-0.109-0.579-0.188 c-0.099-0.046-0.232-0.108-0.264-0.098c-0.037,0.003-0.053,0.016-0.1,0.057c-0.078,0.067-0.185,0.158-0.443,0.183 c-0.091,0.004-0.174-0.031-0.223-0.109c-0.21-0.337,0.255-1.55,0.656-2.205c0.191-0.313,0.124-0.978,0.052-1.681 c-0.098-0.96-0.199-1.952,0.282-2.477L54.957,37.242z M54.137,48.837c-0.477,0-1.082-0.081-1.785-0.244l0,0 c-1.746-0.404-1.724-0.739-1.716-0.85c0.017-0.252,0.403-0.4,1.253-0.481c1.882-0.178,3.37,0.442,3.416,0.932 c0.015,0.157-0.041,0.295-0.161,0.399C54.959,48.756,54.613,48.837,54.137,48.837z M52.409,48.351 c1.536,0.354,2.336,0.262,2.571,0.056c0.059-0.052,0.083-0.111,0.076-0.188c-0.024-0.255-1.288-0.881-3.144-0.706 c-0.953,0.09-1.027,0.25-1.028,0.251C50.897,47.823,51.201,48.071,52.409,48.351L52.409,48.351z M55.221,46.913 c-0.025,0-0.05-0.004-0.075-0.013l-2.099-0.756l-2.67,0.664c-0.119,0.032-0.236-0.042-0.265-0.159 c-0.027-0.11,0.033-0.222,0.139-0.26l2.707-0.958c0.081-0.029,0.174-0.024,0.254,0.014l2.107,1.054 c0.107,0.054,0.151,0.186,0.098,0.293l0,0C55.378,46.867,55.301,46.913,55.221,46.913z M55.305,46.735h0.003H55.305z M53.054,45.888c0.014,0,0.029,0.002,0.042,0.007l1.642,0.591l-1.636-0.818c-0.017-0.009-0.041-0.011-0.06-0.003l-2.102,0.745 l2.083-0.518C53.034,45.889,53.043,45.888,53.054,45.888z"/></g></g></g><path fill="#472b29" d="M43.264,66.107c-0.061,0-0.114-0.044-0.124-0.105c-0.011-0.068,0.036-0.132,0.104-0.143	c1.815-0.29,6.31-2.904,7.838-8.783c0.017-0.067,0.086-0.107,0.152-0.09c0.067,0.018,0.107,0.086,0.09,0.152	c-1.73,6.655-6.783,8.766-8.041,8.967C43.277,66.107,43.271,66.107,43.264,66.107z"/><path fill="#472b29" d="M57.123,58.883c-0.043,0-0.086-0.023-0.109-0.063c-0.034-0.06-0.013-0.136,0.047-0.17	c0.062-0.035,6.168-3.778,5.518-13.408c-0.005-0.069,0.047-0.128,0.116-0.133c0.077-0.008,0.128,0.047,0.133,0.116	c0.672,9.941-5.581,13.606-5.644,13.643C57.165,58.877,57.144,58.883,57.123,58.883z"/><path fill="#472b29" d="M37.183,55.463c-0.82,0-1.803-0.294-2.569-0.977c-0.651-0.58-1.359-1.641-1.033-3.402	c0.272-1.469,1.587-2.851,2.979-4.313c1.853-1.947,3.769-3.961,3.769-6.539c0-0.069,0.056-0.125,0.125-0.125	s0.125,0.056,0.125,0.125c0,2.678-2.039,4.82-3.838,6.711c-1.366,1.435-2.655,2.79-2.914,4.187c-0.305,1.646,0.35,2.632,0.954,3.169	c0.963,0.858,2.334,1.059,3.137,0.813c0.067-0.019,0.136,0.017,0.156,0.083c0.02,0.066-0.017,0.136-0.083,0.156	C37.754,55.424,37.479,55.463,37.183,55.463z"/><path fill="#472b29" d="M63.452,66.123c-0.265,0-0.527-0.03-0.776-0.093c-0.736-0.186-1.972-0.812-1.972-2.922	c0-1.811,1.2-3.356,2.471-4.993c1.479-1.903,3.154-4.06,3.154-7.007c0-1.447-0.683-2.102-1.255-2.396	c-0.799-0.412-1.833-0.333-2.297-0.002c-0.056,0.041-0.134,0.027-0.174-0.029c-0.04-0.056-0.027-0.134,0.029-0.174	c0.521-0.373,1.649-0.484,2.557-0.018c0.634,0.327,1.391,1.046,1.391,2.619c0,3.033-1.704,5.226-3.206,7.161	c-1.244,1.602-2.419,3.114-2.419,4.839c0,1.941,1.117,2.512,1.783,2.68c1.211,0.304,2.753-0.226,3.232-1.114	c0.033-0.061,0.109-0.084,0.169-0.051c0.061,0.033,0.083,0.108,0.051,0.169C65.762,65.584,64.582,66.123,63.452,66.123z"/></svg>