<svg xmlns="http://www.w3.org/2000/svg"  viewBox="0 0 100 100" width="32px" height="32px"><polygon fill="#6b6aaf" points="54.759,67 46.636,67 39.381,61.351 54.155,61.351"/><path fill="#1f212b" d="M54.779,68c-0.007,0-0.013-0.001-0.02,0h-8.123c-0.223,0-0.439-0.074-0.614-0.211l-7.255-5.648 c-0.337-0.263-0.47-0.71-0.332-1.114c0.139-0.403,0.519-0.675,0.946-0.675h14.774c0.511,0,0.94,0.386,0.994,0.894l0.583,5.452 c0.03,0.096,0.047,0.197,0.047,0.303C55.779,67.553,55.332,68,54.779,68z M46.979,66h6.667l-0.39-3.648H42.293L46.979,66z"/><polygon fill="#6b6aaf" points="35.822,73 44,73 44,64.114 35.797,57.557"/><path fill="#1f212b" d="M44,74h-8.178c-0.552,0-0.999-0.446-1-0.998l-0.025-15.443c0-0.385,0.219-0.736,0.566-0.903 s0.758-0.12,1.059,0.12l8.203,6.558C44.862,63.522,45,63.811,45,64.114V73C45,73.553,44.552,74,44,74z M36.82,72H43v-7.405 l-6.2-4.956L36.82,72z"/><polygon fill="#6b6aaf" points="50.594,31.871 38.177,27 38.177,44.691 50.491,44.691"/><path fill="#1f212b" d="M50.492,45.691H38.177c-0.552,0-1-0.447-1-1V27c0-0.331,0.164-0.64,0.437-0.826 c0.274-0.187,0.621-0.228,0.929-0.104l12.417,4.871c0.386,0.151,0.638,0.524,0.635,0.938l-0.102,12.82 C51.487,45.248,51.041,45.691,50.492,45.691z M39.177,43.691H49.5l0.089-11.141l-10.411-4.084V43.691z"/><polyline fill="#6b6aaf" points="78.822,73 87,73 87,30.136 81.35,27 76.875,27 76.875,72.924 78.822,73"/><path fill="#1f212b" d="M87,74h-8.178l-1.986-0.077c-0.537-0.021-0.961-0.462-0.961-0.999V27c0-0.553,0.448-1,1-1h4.475 c0.17,0,0.337,0.043,0.485,0.126l5.65,3.137C87.803,29.438,88,29.773,88,30.137V73C88,73.553,87.552,74,87,74z M77.875,71.962 l0.986,0.039L86,72V30.726L81.091,28h-3.216V71.962z"/><polygon fill="#8f9eb6" points="46.757,67 54,60.972 54,73 81,73 81,27 55.303,27 46.735,35.5 38.177,27 13,27 13,73 39,73 39,60.972"/><path fill="#1f212b" d="M81,74H54c-0.552,0-1-0.447-1-1v-9.895l-5.604,4.663c-0.361,0.301-0.883,0.308-1.253,0.021 L40,63.016V73c0,0.553-0.448,1-1,1H13c-0.552,0-1-0.447-1-1V27c0-0.553,0.448-1,1-1h25.177c0.264,0,0.518,0.104,0.705,0.29 l7.854,7.801l7.863-7.801c0.187-0.186,0.44-0.29,0.704-0.29H81c0.552,0,1,0.447,1,1v46C82,73.553,81.552,74,81,74z M55,72h25V28 H55.715l-8.276,8.21c-0.39,0.387-1.019,0.387-1.409,0L37.765,28H14v44h24V60.972c0-0.382,0.217-0.73,0.561-0.898 c0.343-0.167,0.752-0.125,1.053,0.108l7.122,5.535l6.625-5.514c0.298-0.247,0.714-0.301,1.064-0.137 C54.776,60.23,55,60.584,55,60.972V72z"/><g><path fill="#fefdef" d="M59.036,73l0.354-20.049c0.017-1.012-1.118-1.619-1.95-1.043l-7.213,5 c-1.254,0.869-2.988,0.396-3.627-0.989l0,0c-0.613-1.328,0.065-2.895,1.453-3.358l2.542-0.847l7.255-4.353l0.109-1.746 c0.087-1.391,1.24-2.475,2.634-2.475h0.85c0.813,0.102,1.353,0.394,1.552,0.923l5.941-4.356c1.087-0.797,2.616-0.555,3.402,0.54v0 c0.852,1.185,0.471,2.849-0.812,3.546l-6.816,3.7l0.528,15.565L65.103,73H59.036z"/><path fill="#1f212b" d="M65.104,73.5h-6.068c-0.134,0-0.263-0.054-0.356-0.149c-0.094-0.096-0.146-0.226-0.144-0.359 l0.354-20.049c0.004-0.259-0.11-0.431-0.208-0.529c-0.248-0.254-0.656-0.302-0.958-0.094l-7.213,5 c-0.498,0.345-1.078,0.527-1.68,0.527c-1.15,0-2.205-0.674-2.687-1.717c-0.352-0.762-0.362-1.641-0.029-2.411 c0.333-0.771,0.981-1.365,1.778-1.631l2.491-0.83l6.982-4.189l0.093-1.484c0.103-1.65,1.479-2.943,3.133-2.943h0.85 c0.776,0.095,1.333,0.331,1.684,0.706l5.512-4.042c1.265-0.927,3.191-0.618,4.104,0.651c0.489,0.682,0.663,1.541,0.476,2.358 c-0.188,0.818-0.718,1.518-1.456,1.919l-6.545,3.553l0.517,15.256l-0.131,9.965C65.6,73.28,65.377,73.5,65.104,73.5z M59.544,72.5 h5.065l0.125-9.448l-0.527-15.541c-0.007-0.189,0.095-0.365,0.261-0.456l6.816-3.7c0.486-0.264,0.835-0.725,0.958-1.263 s0.009-1.104-0.313-1.552c-0.6-0.836-1.867-1.042-2.7-0.429l-5.941,4.356C63.162,44.56,63,44.587,62.85,44.544 c-0.15-0.045-0.271-0.157-0.326-0.304c-0.12-0.319-0.505-0.522-1.146-0.604l-0.787,0.004c-1.127,0-2.065,0.881-2.135,2.006 l-0.109,1.747c-0.01,0.164-0.101,0.313-0.242,0.397l-7.255,4.353c-0.031,0.019-0.064,0.034-0.099,0.046l-2.542,0.848 c-0.527,0.176-0.956,0.568-1.176,1.078s-0.213,1.091,0.02,1.595c0.484,1.05,1.926,1.453,2.889,0.787l7.213-5 c0.687-0.476,1.664-0.372,2.241,0.215c0.327,0.333,0.502,0.775,0.494,1.248L59.544,72.5z"/></g><g><path fill="#fefdef" d="M68.873,47.527c-1.761,0.484-2.756,2.346-2.179,4.079l1.179,3.538l4.512,12.268 c0.999,2.717,4.861,2.662,5.783-0.081l2.633-7.834l2.506-5.804l3.562-6.068L87,39.184c0,0-5.349,5.816-6.727,8.046 c-1.561,2.526-4.745,10.891-4.745,10.891c-0.311,0.714-1.361,0.582-1.486-0.186l-0.497-3.054l-0.676-4.732 C72.598,48.25,70.723,47.019,68.873,47.527L68.873,47.527z"/><path fill="#1f212b" d="M75.26,69.92c-1.51,0-2.823-0.916-3.344-2.334l-4.511-12.269l-1.185-3.553 c-0.323-0.971-0.236-2.001,0.246-2.902c0.481-0.901,1.289-1.547,2.274-1.817c0.321-0.088,0.651-0.133,0.979-0.133 c1.82,0,3.387,1.361,3.645,3.166l0.676,4.732l0.496,3.044c0.036,0.224,0.241,0.235,0.281,0.235c0.082,0,0.192-0.029,0.252-0.169 c0.122-0.321,3.209-8.417,4.778-10.954c1.388-2.244,6.564-7.883,6.784-8.122c0.141-0.152,0.36-0.202,0.553-0.126 c0.193,0.077,0.318,0.266,0.315,0.473l-0.132,8.442c-0.001,0.086-0.025,0.171-0.069,0.245l-3.562,6.067l-2.479,5.749l-2.618,7.795 C78.146,68.967,76.818,69.92,75.26,69.92z M69.72,47.912c-0.24,0-0.48,0.033-0.714,0.098c-0.718,0.197-1.307,0.667-1.658,1.323 c-0.351,0.657-0.415,1.408-0.179,2.115l1.179,3.538l4.506,12.254c0.456,1.238,1.542,1.68,2.406,1.68c0.893,0,2-0.459,2.434-1.748 l2.633-7.834l2.521-5.843l3.522-6.009l0.109-6.985c-1.574,1.748-4.781,5.373-5.781,6.991c-1.519,2.458-4.671,10.724-4.703,10.807 c-0.216,0.496-0.664,0.791-1.178,0.791c-0.644,0-1.166-0.442-1.269-1.075l-0.497-3.054l-0.677-4.742 C72.187,48.904,71.045,47.912,69.72,47.912z"/></g><g><path fill="#1f212b" d="M34.5,69h-9.343c-0.276,0-0.5-0.224-0.5-0.5s0.224-0.5,0.5-0.5H34V51.439 c0-0.193,0.111-0.369,0.285-0.451c0.174-0.084,0.381-0.059,0.531,0.063l12.092,9.85c0.214,0.175,0.246,0.489,0.072,0.703 c-0.173,0.216-0.489,0.246-0.704,0.072L35,52.491V68.5C35,68.776,34.776,69,34.5,69z M22.157,69h-2c-0.276,0-0.5-0.224-0.5-0.5 s0.224-0.5,0.5-0.5h2c0.276,0,0.5,0.224,0.5,0.5S22.433,69,22.157,69z M17.5,68.656c-0.276,0-0.5-0.224-0.5-0.5v-20 c0-0.276,0.224-0.5,0.5-0.5s0.5,0.224,0.5,0.5v20C18,68.433,17.776,68.656,17.5,68.656z M76.5,47c-0.276,0-0.5-0.224-0.5-0.5 V35.228c0-0.276,0.224-0.5,0.5-0.5s0.5,0.224,0.5,0.5V46.5C77,46.776,76.776,47,76.5,47z M47.018,44.15 c-0.137,0-0.269-0.057-0.363-0.156L35.297,32H18v6.156c0,0.276-0.224,0.5-0.5,0.5s-0.5-0.224-0.5-0.5V31.5 c0-0.276,0.224-0.5,0.5-0.5h18.012c0.137,0,0.269,0.057,0.363,0.156L47.01,42.915l0.039-0.043c0.185-0.204,0.502-0.22,0.707-0.034 c0.205,0.185,0.22,0.501,0.035,0.706l-0.401,0.442c-0.094,0.103-0.226,0.162-0.365,0.164C47.021,44.15,47.02,44.15,47.018,44.15z M49.433,41.484c-0.12,0-0.24-0.043-0.335-0.13c-0.205-0.185-0.221-0.501-0.035-0.706l1.343-1.482 c0.186-0.203,0.501-0.22,0.706-0.034c0.205,0.185,0.221,0.501,0.035,0.706l-1.343,1.482C49.705,41.429,49.569,41.484,49.433,41.484 z M52.79,37.778c-0.12,0-0.24-0.043-0.335-0.13c-0.205-0.185-0.221-0.501-0.035-0.706l5.234-5.778 C57.749,31.06,57.883,31,58.024,31h12.203c0.276,0,0.5,0.224,0.5,0.5s-0.224,0.5-0.5,0.5H58.246l-5.085,5.614 C53.062,37.723,52.926,37.778,52.79,37.778z"/></g><g><path fill="#1f212b" d="M69.647,74H56.229c-0.552,0-1-0.447-1-1s0.448-1,1-1h13.417c0.552,0,1,0.447,1,1 S70.199,74,69.647,74z"/></g><g><line x1="87" x2="87" y1="33.667" y2="59.5" fill="#fefdef"/><path fill="#1f212b" d="M87,60.5c-0.552,0-1-0.447-1-1V33.667c0-0.553,0.448-1,1-1s1,0.447,1,1V59.5 C88,60.053,87.552,60.5,87,60.5z"/></g></svg>